<mxfile host="app.diagrams.net" agent="Mozilla/5.0 (X11; Ubuntu; Linux x86_64; rv:132.0) Gecko/20100101 Firefox/132.0" version="24.8.6" pages="3">
  <diagram name="Side-1" id="vok2m8yfV7hNzYpX95l9">
    <mxGraphModel dx="928" dy="468" grid="1" gridSize="5" guides="1" tooltips="1" connect="1" arrows="1" fold="1" page="1" pageScale="1" pageWidth="850" pageHeight="1100" math="1" shadow="0">
      <root>
        <mxCell id="0" />
        <mxCell id="1" parent="0" />
        <mxCell id="zNKdxAy1lFmLYcLbLPEg-5" value="" style="group" parent="1" vertex="1" connectable="0">
          <mxGeometry x="245" y="170" width="30" height="30" as="geometry" />
        </mxCell>
        <mxCell id="zNKdxAy1lFmLYcLbLPEg-1" value="" style="ellipse;whiteSpace=wrap;html=1;aspect=fixed;" parent="zNKdxAy1lFmLYcLbLPEg-5" vertex="1">
          <mxGeometry width="30" height="30" as="geometry" />
        </mxCell>
        <mxCell id="zNKdxAy1lFmLYcLbLPEg-2" value="" style="endArrow=none;html=1;rounded=0;exitX=0;exitY=1;exitDx=0;exitDy=0;entryX=1;entryY=0;entryDx=0;entryDy=0;" parent="zNKdxAy1lFmLYcLbLPEg-5" source="zNKdxAy1lFmLYcLbLPEg-1" target="zNKdxAy1lFmLYcLbLPEg-1" edge="1">
          <mxGeometry width="50" height="50" relative="1" as="geometry">
            <mxPoint x="120" y="82.5" as="sourcePoint" />
            <mxPoint x="157.5" y="45" as="targetPoint" />
          </mxGeometry>
        </mxCell>
        <mxCell id="zNKdxAy1lFmLYcLbLPEg-3" value="" style="endArrow=none;html=1;rounded=0;exitX=0;exitY=0;exitDx=0;exitDy=0;entryX=1;entryY=1;entryDx=0;entryDy=0;" parent="zNKdxAy1lFmLYcLbLPEg-5" source="zNKdxAy1lFmLYcLbLPEg-1" target="zNKdxAy1lFmLYcLbLPEg-1" edge="1">
          <mxGeometry width="50" height="50" relative="1" as="geometry">
            <mxPoint x="12.75" y="32.25" as="sourcePoint" />
            <mxPoint x="39.75" y="5.25" as="targetPoint" />
          </mxGeometry>
        </mxCell>
        <mxCell id="zNKdxAy1lFmLYcLbLPEg-14" value="test_sample[0]" style="text;html=1;align=right;verticalAlign=middle;whiteSpace=wrap;rounded=0;" parent="1" vertex="1">
          <mxGeometry x="140" y="200" width="80" height="30" as="geometry" />
        </mxCell>
        <mxCell id="zNKdxAy1lFmLYcLbLPEg-15" value="sample[0]" style="text;html=1;align=right;verticalAlign=middle;whiteSpace=wrap;rounded=0;" parent="1" vertex="1">
          <mxGeometry x="140" y="170" width="80" height="30" as="geometry" />
        </mxCell>
        <mxCell id="zNKdxAy1lFmLYcLbLPEg-16" value="" style="endArrow=none;html=1;rounded=0;exitX=1;exitY=0.5;exitDx=0;exitDy=0;entryX=0;entryY=0.5;entryDx=0;entryDy=0;" parent="1" source="zNKdxAy1lFmLYcLbLPEg-15" target="zNKdxAy1lFmLYcLbLPEg-1" edge="1">
          <mxGeometry width="50" height="50" relative="1" as="geometry">
            <mxPoint x="280" y="315" as="sourcePoint" />
            <mxPoint x="330" y="265" as="targetPoint" />
          </mxGeometry>
        </mxCell>
        <mxCell id="zNKdxAy1lFmLYcLbLPEg-17" value="" style="endArrow=none;html=1;rounded=0;exitX=1;exitY=0.5;exitDx=0;exitDy=0;entryX=0.5;entryY=1;entryDx=0;entryDy=0;" parent="1" source="zNKdxAy1lFmLYcLbLPEg-14" target="zNKdxAy1lFmLYcLbLPEg-1" edge="1">
          <mxGeometry width="50" height="50" relative="1" as="geometry">
            <mxPoint x="220" y="219.76" as="sourcePoint" />
            <mxPoint x="240" y="219.76" as="targetPoint" />
            <Array as="points">
              <mxPoint x="260" y="215" />
            </Array>
          </mxGeometry>
        </mxCell>
        <mxCell id="zNKdxAy1lFmLYcLbLPEg-18" value="" style="group" parent="1" vertex="1" connectable="0">
          <mxGeometry x="245" y="230" width="30" height="30" as="geometry" />
        </mxCell>
        <mxCell id="zNKdxAy1lFmLYcLbLPEg-19" value="" style="ellipse;whiteSpace=wrap;html=1;aspect=fixed;" parent="zNKdxAy1lFmLYcLbLPEg-18" vertex="1">
          <mxGeometry width="30" height="30" as="geometry" />
        </mxCell>
        <mxCell id="zNKdxAy1lFmLYcLbLPEg-20" value="" style="endArrow=none;html=1;rounded=0;exitX=0;exitY=1;exitDx=0;exitDy=0;entryX=1;entryY=0;entryDx=0;entryDy=0;" parent="zNKdxAy1lFmLYcLbLPEg-18" source="zNKdxAy1lFmLYcLbLPEg-19" target="zNKdxAy1lFmLYcLbLPEg-19" edge="1">
          <mxGeometry width="50" height="50" relative="1" as="geometry">
            <mxPoint x="120" y="82.5" as="sourcePoint" />
            <mxPoint x="157.5" y="45" as="targetPoint" />
          </mxGeometry>
        </mxCell>
        <mxCell id="zNKdxAy1lFmLYcLbLPEg-21" value="" style="endArrow=none;html=1;rounded=0;exitX=0;exitY=0;exitDx=0;exitDy=0;entryX=1;entryY=1;entryDx=0;entryDy=0;" parent="zNKdxAy1lFmLYcLbLPEg-18" source="zNKdxAy1lFmLYcLbLPEg-19" target="zNKdxAy1lFmLYcLbLPEg-19" edge="1">
          <mxGeometry width="50" height="50" relative="1" as="geometry">
            <mxPoint x="12.75" y="32.25" as="sourcePoint" />
            <mxPoint x="39.75" y="5.25" as="targetPoint" />
          </mxGeometry>
        </mxCell>
        <mxCell id="zNKdxAy1lFmLYcLbLPEg-22" value="test_sample[1]" style="text;html=1;align=right;verticalAlign=middle;whiteSpace=wrap;rounded=0;" parent="1" vertex="1">
          <mxGeometry x="140" y="260" width="80" height="30" as="geometry" />
        </mxCell>
        <mxCell id="zNKdxAy1lFmLYcLbLPEg-23" value="sample[1]" style="text;html=1;align=right;verticalAlign=middle;whiteSpace=wrap;rounded=0;" parent="1" vertex="1">
          <mxGeometry x="140" y="230" width="80" height="30" as="geometry" />
        </mxCell>
        <mxCell id="zNKdxAy1lFmLYcLbLPEg-24" value="" style="endArrow=none;html=1;rounded=0;exitX=1;exitY=0.5;exitDx=0;exitDy=0;entryX=0;entryY=0.5;entryDx=0;entryDy=0;" parent="1" source="zNKdxAy1lFmLYcLbLPEg-23" target="zNKdxAy1lFmLYcLbLPEg-19" edge="1">
          <mxGeometry width="50" height="50" relative="1" as="geometry">
            <mxPoint x="280" y="375" as="sourcePoint" />
            <mxPoint x="330" y="325" as="targetPoint" />
          </mxGeometry>
        </mxCell>
        <mxCell id="zNKdxAy1lFmLYcLbLPEg-25" value="" style="endArrow=none;html=1;rounded=0;exitX=1;exitY=0.5;exitDx=0;exitDy=0;entryX=0.5;entryY=1;entryDx=0;entryDy=0;" parent="1" source="zNKdxAy1lFmLYcLbLPEg-22" target="zNKdxAy1lFmLYcLbLPEg-19" edge="1">
          <mxGeometry width="50" height="50" relative="1" as="geometry">
            <mxPoint x="220" y="279.76" as="sourcePoint" />
            <mxPoint x="240" y="279.76" as="targetPoint" />
            <Array as="points">
              <mxPoint x="260" y="275" />
            </Array>
          </mxGeometry>
        </mxCell>
        <mxCell id="zNKdxAy1lFmLYcLbLPEg-26" value="" style="group" parent="1" vertex="1" connectable="0">
          <mxGeometry x="245" y="300" width="30" height="30" as="geometry" />
        </mxCell>
        <mxCell id="zNKdxAy1lFmLYcLbLPEg-27" value="" style="ellipse;whiteSpace=wrap;html=1;aspect=fixed;" parent="zNKdxAy1lFmLYcLbLPEg-26" vertex="1">
          <mxGeometry width="30" height="30" as="geometry" />
        </mxCell>
        <mxCell id="zNKdxAy1lFmLYcLbLPEg-28" value="" style="endArrow=none;html=1;rounded=0;exitX=0;exitY=1;exitDx=0;exitDy=0;entryX=1;entryY=0;entryDx=0;entryDy=0;" parent="zNKdxAy1lFmLYcLbLPEg-26" source="zNKdxAy1lFmLYcLbLPEg-27" target="zNKdxAy1lFmLYcLbLPEg-27" edge="1">
          <mxGeometry width="50" height="50" relative="1" as="geometry">
            <mxPoint x="120" y="82.5" as="sourcePoint" />
            <mxPoint x="157.5" y="45" as="targetPoint" />
          </mxGeometry>
        </mxCell>
        <mxCell id="zNKdxAy1lFmLYcLbLPEg-29" value="" style="endArrow=none;html=1;rounded=0;exitX=0;exitY=0;exitDx=0;exitDy=0;entryX=1;entryY=1;entryDx=0;entryDy=0;" parent="zNKdxAy1lFmLYcLbLPEg-26" source="zNKdxAy1lFmLYcLbLPEg-27" target="zNKdxAy1lFmLYcLbLPEg-27" edge="1">
          <mxGeometry width="50" height="50" relative="1" as="geometry">
            <mxPoint x="12.75" y="32.25" as="sourcePoint" />
            <mxPoint x="39.75" y="5.25" as="targetPoint" />
          </mxGeometry>
        </mxCell>
        <mxCell id="zNKdxAy1lFmLYcLbLPEg-30" value="test_sample[n-2]" style="text;html=1;align=right;verticalAlign=middle;whiteSpace=wrap;rounded=0;" parent="1" vertex="1">
          <mxGeometry x="120" y="330" width="100" height="30" as="geometry" />
        </mxCell>
        <mxCell id="zNKdxAy1lFmLYcLbLPEg-31" value="sample[n-2]" style="text;html=1;align=right;verticalAlign=middle;whiteSpace=wrap;rounded=0;" parent="1" vertex="1">
          <mxGeometry x="140" y="300" width="80" height="30" as="geometry" />
        </mxCell>
        <mxCell id="zNKdxAy1lFmLYcLbLPEg-32" value="" style="endArrow=none;html=1;rounded=0;exitX=1;exitY=0.5;exitDx=0;exitDy=0;entryX=0;entryY=0.5;entryDx=0;entryDy=0;" parent="1" source="zNKdxAy1lFmLYcLbLPEg-31" target="zNKdxAy1lFmLYcLbLPEg-27" edge="1">
          <mxGeometry width="50" height="50" relative="1" as="geometry">
            <mxPoint x="280" y="445" as="sourcePoint" />
            <mxPoint x="330" y="395" as="targetPoint" />
          </mxGeometry>
        </mxCell>
        <mxCell id="zNKdxAy1lFmLYcLbLPEg-33" value="" style="endArrow=none;html=1;rounded=0;exitX=1;exitY=0.5;exitDx=0;exitDy=0;entryX=0.5;entryY=1;entryDx=0;entryDy=0;" parent="1" source="zNKdxAy1lFmLYcLbLPEg-30" target="zNKdxAy1lFmLYcLbLPEg-27" edge="1">
          <mxGeometry width="50" height="50" relative="1" as="geometry">
            <mxPoint x="220" y="349.76" as="sourcePoint" />
            <mxPoint x="240" y="349.76" as="targetPoint" />
            <Array as="points">
              <mxPoint x="260" y="345" />
            </Array>
          </mxGeometry>
        </mxCell>
        <mxCell id="zNKdxAy1lFmLYcLbLPEg-34" value="" style="group" parent="1" vertex="1" connectable="0">
          <mxGeometry x="245" y="360" width="30" height="30" as="geometry" />
        </mxCell>
        <mxCell id="zNKdxAy1lFmLYcLbLPEg-35" value="" style="ellipse;whiteSpace=wrap;html=1;aspect=fixed;" parent="zNKdxAy1lFmLYcLbLPEg-34" vertex="1">
          <mxGeometry width="30" height="30" as="geometry" />
        </mxCell>
        <mxCell id="zNKdxAy1lFmLYcLbLPEg-36" value="" style="endArrow=none;html=1;rounded=0;exitX=0;exitY=1;exitDx=0;exitDy=0;entryX=1;entryY=0;entryDx=0;entryDy=0;" parent="zNKdxAy1lFmLYcLbLPEg-34" source="zNKdxAy1lFmLYcLbLPEg-35" target="zNKdxAy1lFmLYcLbLPEg-35" edge="1">
          <mxGeometry width="50" height="50" relative="1" as="geometry">
            <mxPoint x="120" y="82.5" as="sourcePoint" />
            <mxPoint x="157.5" y="45" as="targetPoint" />
          </mxGeometry>
        </mxCell>
        <mxCell id="zNKdxAy1lFmLYcLbLPEg-37" value="" style="endArrow=none;html=1;rounded=0;exitX=0;exitY=0;exitDx=0;exitDy=0;entryX=1;entryY=1;entryDx=0;entryDy=0;" parent="zNKdxAy1lFmLYcLbLPEg-34" source="zNKdxAy1lFmLYcLbLPEg-35" target="zNKdxAy1lFmLYcLbLPEg-35" edge="1">
          <mxGeometry width="50" height="50" relative="1" as="geometry">
            <mxPoint x="12.75" y="32.25" as="sourcePoint" />
            <mxPoint x="39.75" y="5.25" as="targetPoint" />
          </mxGeometry>
        </mxCell>
        <mxCell id="zNKdxAy1lFmLYcLbLPEg-38" value="test_sample[n-1]" style="text;html=1;align=right;verticalAlign=middle;whiteSpace=wrap;rounded=0;" parent="1" vertex="1">
          <mxGeometry x="120" y="390" width="100" height="30" as="geometry" />
        </mxCell>
        <mxCell id="zNKdxAy1lFmLYcLbLPEg-39" value="sample[n-1]" style="text;html=1;align=right;verticalAlign=middle;whiteSpace=wrap;rounded=0;" parent="1" vertex="1">
          <mxGeometry x="140" y="360" width="80" height="30" as="geometry" />
        </mxCell>
        <mxCell id="zNKdxAy1lFmLYcLbLPEg-40" value="" style="endArrow=none;html=1;rounded=0;exitX=1;exitY=0.5;exitDx=0;exitDy=0;entryX=0;entryY=0.5;entryDx=0;entryDy=0;" parent="1" source="zNKdxAy1lFmLYcLbLPEg-39" target="zNKdxAy1lFmLYcLbLPEg-35" edge="1">
          <mxGeometry width="50" height="50" relative="1" as="geometry">
            <mxPoint x="280" y="505" as="sourcePoint" />
            <mxPoint x="330" y="455" as="targetPoint" />
          </mxGeometry>
        </mxCell>
        <mxCell id="zNKdxAy1lFmLYcLbLPEg-41" value="" style="endArrow=none;html=1;rounded=0;exitX=1;exitY=0.5;exitDx=0;exitDy=0;entryX=0.5;entryY=1;entryDx=0;entryDy=0;" parent="1" source="zNKdxAy1lFmLYcLbLPEg-38" target="zNKdxAy1lFmLYcLbLPEg-35" edge="1">
          <mxGeometry width="50" height="50" relative="1" as="geometry">
            <mxPoint x="220" y="409.76" as="sourcePoint" />
            <mxPoint x="240" y="409.76" as="targetPoint" />
            <Array as="points">
              <mxPoint x="260" y="405" />
            </Array>
          </mxGeometry>
        </mxCell>
        <mxCell id="zNKdxAy1lFmLYcLbLPEg-42" value="&lt;font style=&quot;font-size: 28px;&quot;&gt;...&lt;/font&gt;" style="text;html=1;align=center;verticalAlign=middle;whiteSpace=wrap;rounded=0;" parent="1" vertex="1">
          <mxGeometry x="240" y="270" width="40" height="30" as="geometry" />
        </mxCell>
        <mxCell id="zNKdxAy1lFmLYcLbLPEg-43" value="&lt;div&gt;$$\sum$$&lt;/div&gt;" style="ellipse;whiteSpace=wrap;html=1;aspect=fixed;" parent="1" vertex="1">
          <mxGeometry x="365" y="225" width="40" height="40" as="geometry" />
        </mxCell>
        <mxCell id="zNKdxAy1lFmLYcLbLPEg-44" value="" style="endArrow=none;html=1;rounded=0;exitX=1;exitY=0.5;exitDx=0;exitDy=0;entryX=0;entryY=0;entryDx=0;entryDy=0;" parent="1" source="zNKdxAy1lFmLYcLbLPEg-1" target="zNKdxAy1lFmLYcLbLPEg-43" edge="1">
          <mxGeometry width="50" height="50" relative="1" as="geometry">
            <mxPoint x="300" y="135" as="sourcePoint" />
            <mxPoint x="340" y="125" as="targetPoint" />
            <Array as="points">
              <mxPoint x="340" y="185" />
            </Array>
          </mxGeometry>
        </mxCell>
        <mxCell id="zNKdxAy1lFmLYcLbLPEg-45" value="" style="endArrow=none;html=1;rounded=0;exitX=1;exitY=0.5;exitDx=0;exitDy=0;entryX=0;entryY=0.5;entryDx=0;entryDy=0;" parent="1" source="zNKdxAy1lFmLYcLbLPEg-19" target="zNKdxAy1lFmLYcLbLPEg-43" edge="1">
          <mxGeometry width="50" height="50" relative="1" as="geometry">
            <mxPoint x="290" y="150" as="sourcePoint" />
            <mxPoint x="430" y="290" as="targetPoint" />
            <Array as="points">
              <mxPoint x="340" y="245" />
            </Array>
          </mxGeometry>
        </mxCell>
        <mxCell id="zNKdxAy1lFmLYcLbLPEg-46" value="" style="endArrow=none;html=1;rounded=0;exitX=1;exitY=0.5;exitDx=0;exitDy=0;entryX=0;entryY=1;entryDx=0;entryDy=0;" parent="1" source="zNKdxAy1lFmLYcLbLPEg-27" target="zNKdxAy1lFmLYcLbLPEg-43" edge="1">
          <mxGeometry width="50" height="50" relative="1" as="geometry">
            <mxPoint x="290" y="230" as="sourcePoint" />
            <mxPoint x="416" y="296" as="targetPoint" />
            <Array as="points">
              <mxPoint x="340" y="315" />
            </Array>
          </mxGeometry>
        </mxCell>
        <mxCell id="zNKdxAy1lFmLYcLbLPEg-47" value="" style="endArrow=none;html=1;rounded=0;exitX=1;exitY=0.5;exitDx=0;exitDy=0;entryX=0.5;entryY=1;entryDx=0;entryDy=0;" parent="1" source="zNKdxAy1lFmLYcLbLPEg-35" target="zNKdxAy1lFmLYcLbLPEg-43" edge="1">
          <mxGeometry width="50" height="50" relative="1" as="geometry">
            <mxPoint x="290" y="350" as="sourcePoint" />
            <mxPoint x="416" y="324" as="targetPoint" />
            <Array as="points">
              <mxPoint x="340" y="375" />
            </Array>
          </mxGeometry>
        </mxCell>
        <mxCell id="zNKdxAy1lFmLYcLbLPEg-55" style="edgeStyle=orthogonalEdgeStyle;rounded=0;orthogonalLoop=1;jettySize=auto;html=1;exitX=1;exitY=0.5;exitDx=0;exitDy=0;" parent="1" source="zNKdxAy1lFmLYcLbLPEg-43" edge="1">
          <mxGeometry relative="1" as="geometry">
            <mxPoint x="520" y="280" as="sourcePoint" />
            <mxPoint x="555" y="245" as="targetPoint" />
          </mxGeometry>
        </mxCell>
        <mxCell id="zNKdxAy1lFmLYcLbLPEg-51" value="&lt;div&gt;clock counter&lt;br&gt;&lt;/div&gt;" style="text;html=1;align=center;verticalAlign=middle;whiteSpace=wrap;rounded=0;" parent="1" vertex="1">
          <mxGeometry x="420" y="345" width="80" height="30" as="geometry" />
        </mxCell>
        <mxCell id="zNKdxAy1lFmLYcLbLPEg-54" value="time" style="rounded=0;whiteSpace=wrap;html=1;" parent="1" vertex="1">
          <mxGeometry x="540" y="340" width="80" height="35" as="geometry" />
        </mxCell>
        <mxCell id="zNKdxAy1lFmLYcLbLPEg-58" value="" style="endArrow=classic;html=1;rounded=0;exitX=1;exitY=0.5;exitDx=0;exitDy=0;entryX=0;entryY=0.571;entryDx=0;entryDy=0;entryPerimeter=0;endFill=1;" parent="1" source="zNKdxAy1lFmLYcLbLPEg-51" target="zNKdxAy1lFmLYcLbLPEg-54" edge="1">
          <mxGeometry width="50" height="50" relative="1" as="geometry">
            <mxPoint x="355" y="400" as="sourcePoint" />
            <mxPoint x="445" y="400" as="targetPoint" />
            <Array as="points" />
          </mxGeometry>
        </mxCell>
        <mxCell id="-Wjc0SM36Tfltupxc04A-17" value="" style="group" parent="1" vertex="1" connectable="0">
          <mxGeometry x="555" y="220" width="40" height="80" as="geometry" />
        </mxCell>
        <mxCell id="-Wjc0SM36Tfltupxc04A-15" value="" style="endArrow=none;html=1;rounded=0;" parent="-Wjc0SM36Tfltupxc04A-17" edge="1">
          <mxGeometry width="50" height="50" relative="1" as="geometry">
            <mxPoint x="40" y="40" as="sourcePoint" />
            <mxPoint x="20" y="40" as="targetPoint" />
            <Array as="points">
              <mxPoint x="40" y="20" />
              <mxPoint />
              <mxPoint y="30" />
            </Array>
          </mxGeometry>
        </mxCell>
        <mxCell id="-Wjc0SM36Tfltupxc04A-21" value="A&amp;lt;B" style="edgeLabel;html=1;align=center;verticalAlign=middle;resizable=0;points=[];rotation=-90;" parent="-Wjc0SM36Tfltupxc04A-15" vertex="1" connectable="0">
          <mxGeometry x="-0.8463" y="2" relative="1" as="geometry">
            <mxPoint x="-8" y="9" as="offset" />
          </mxGeometry>
        </mxCell>
        <mxCell id="-Wjc0SM36Tfltupxc04A-16" value="" style="endArrow=none;html=1;rounded=0;" parent="-Wjc0SM36Tfltupxc04A-17" edge="1">
          <mxGeometry width="50" height="50" relative="1" as="geometry">
            <mxPoint x="40" y="40" as="sourcePoint" />
            <mxPoint x="20" y="40" as="targetPoint" />
            <Array as="points">
              <mxPoint x="40" y="60" />
              <mxPoint y="80" />
              <mxPoint y="50" />
            </Array>
          </mxGeometry>
        </mxCell>
        <mxCell id="-Wjc0SM36Tfltupxc04A-29" value="A" style="edgeLabel;html=1;align=center;verticalAlign=middle;resizable=0;points=[];rotation=-90;" parent="-Wjc0SM36Tfltupxc04A-17" vertex="1" connectable="0">
          <mxGeometry x="10" y="60.002380952380975" as="geometry" />
        </mxCell>
        <mxCell id="-Wjc0SM36Tfltupxc04A-30" value="B" style="edgeLabel;html=1;align=center;verticalAlign=middle;resizable=0;points=[];rotation=-90;" parent="-Wjc0SM36Tfltupxc04A-17" vertex="1" connectable="0">
          <mxGeometry x="10" y="20.002380952380975" as="geometry">
            <mxPoint x="-6.123233995736766e-17" y="-1" as="offset" />
          </mxGeometry>
        </mxCell>
        <mxCell id="-Wjc0SM36Tfltupxc04A-18" value="" style="group" parent="1" vertex="1" connectable="0">
          <mxGeometry x="435" y="260" width="80" height="40.5" as="geometry" />
        </mxCell>
        <mxCell id="-Wjc0SM36Tfltupxc04A-19" style="edgeStyle=orthogonalEdgeStyle;rounded=0;orthogonalLoop=1;jettySize=auto;html=1;" parent="-Wjc0SM36Tfltupxc04A-18" source="-Wjc0SM36Tfltupxc04A-2" edge="1">
          <mxGeometry relative="1" as="geometry">
            <mxPoint x="120" y="20" as="targetPoint" />
          </mxGeometry>
        </mxCell>
        <mxCell id="-Wjc0SM36Tfltupxc04A-27" value="" style="group" parent="-Wjc0SM36Tfltupxc04A-18" vertex="1" connectable="0">
          <mxGeometry x="10" width="80" height="40.5" as="geometry" />
        </mxCell>
        <mxCell id="-Wjc0SM36Tfltupxc04A-2" value="&lt;div&gt;Max score&lt;/div&gt;" style="rounded=0;whiteSpace=wrap;html=1;" parent="-Wjc0SM36Tfltupxc04A-27" vertex="1">
          <mxGeometry width="80" height="40" as="geometry" />
        </mxCell>
        <mxCell id="-Wjc0SM36Tfltupxc04A-3" value="" style="triangle;whiteSpace=wrap;html=1;rotation=-90;" parent="-Wjc0SM36Tfltupxc04A-27" vertex="1">
          <mxGeometry x="65" y="27" width="10" height="15" as="geometry" />
        </mxCell>
        <mxCell id="-Wjc0SM36Tfltupxc04A-23" value="" style="endArrow=classic;html=1;rounded=0;" parent="1" edge="1">
          <mxGeometry width="50" height="50" relative="1" as="geometry">
            <mxPoint x="595" y="260" as="sourcePoint" />
            <mxPoint x="515" y="300" as="targetPoint" />
            <Array as="points">
              <mxPoint x="610" y="260" />
              <mxPoint x="610" y="320" />
              <mxPoint x="515" y="320" />
            </Array>
          </mxGeometry>
        </mxCell>
        <mxCell id="-Wjc0SM36Tfltupxc04A-24" value="" style="triangle;whiteSpace=wrap;html=1;rotation=90;" parent="1" vertex="1">
          <mxGeometry x="605" y="337.5" width="10" height="15" as="geometry" />
        </mxCell>
        <mxCell id="-Wjc0SM36Tfltupxc04A-25" value="" style="endArrow=classic;html=1;rounded=0;entryX=0;entryY=0.5;entryDx=0;entryDy=0;" parent="1" edge="1">
          <mxGeometry width="50" height="50" relative="1" as="geometry">
            <mxPoint x="610" y="320" as="sourcePoint" />
            <mxPoint x="610" y="339.5" as="targetPoint" />
          </mxGeometry>
        </mxCell>
        <mxCell id="-Wjc0SM36Tfltupxc04A-28" style="edgeStyle=orthogonalEdgeStyle;rounded=0;orthogonalLoop=1;jettySize=auto;html=1;exitX=1;exitY=0.5;exitDx=0;exitDy=0;entryX=0;entryY=0.5;entryDx=0;entryDy=0;" parent="1" source="zNKdxAy1lFmLYcLbLPEg-43" target="-Wjc0SM36Tfltupxc04A-2" edge="1">
          <mxGeometry relative="1" as="geometry">
            <mxPoint x="420" y="290" as="sourcePoint" />
            <mxPoint x="590" y="290" as="targetPoint" />
            <Array as="points">
              <mxPoint x="425" y="245" />
              <mxPoint x="425" y="280" />
            </Array>
          </mxGeometry>
        </mxCell>
        <mxCell id="-Wjc0SM36Tfltupxc04A-36" value="" style="endArrow=classic;html=1;rounded=0;exitX=1;exitY=0.5;exitDx=0;exitDy=0;entryX=0;entryY=0.571;entryDx=0;entryDy=0;entryPerimeter=0;endFill=1;" parent="1" edge="1">
          <mxGeometry width="50" height="50" relative="1" as="geometry">
            <mxPoint x="620" y="360" as="sourcePoint" />
            <mxPoint x="660" y="360" as="targetPoint" />
            <Array as="points" />
          </mxGeometry>
        </mxCell>
        <mxCell id="-Wjc0SM36Tfltupxc04A-37" value="&lt;div&gt;Time of flight&lt;/div&gt;" style="text;html=1;align=center;verticalAlign=middle;whiteSpace=wrap;rounded=0;" parent="1" vertex="1">
          <mxGeometry x="660" y="345" width="80" height="30" as="geometry" />
        </mxCell>
        <mxCell id="-Wjc0SM36Tfltupxc04A-38" value="" style="endArrow=none;dashed=1;html=1;strokeWidth=2;rounded=0;" parent="1" edge="1">
          <mxGeometry width="50" height="50" relative="1" as="geometry">
            <mxPoint x="410" y="410" as="sourcePoint" />
            <mxPoint x="410" y="162.75" as="targetPoint" />
          </mxGeometry>
        </mxCell>
        <mxCell id="-Wjc0SM36Tfltupxc04A-40" value="Algorithm blocks" style="text;html=1;align=center;verticalAlign=middle;whiteSpace=wrap;rounded=0;" parent="1" vertex="1">
          <mxGeometry x="300" y="165" width="110" height="20" as="geometry" />
        </mxCell>
        <mxCell id="-Wjc0SM36Tfltupxc04A-41" value="RTL visualisation" style="text;html=1;align=center;verticalAlign=middle;whiteSpace=wrap;rounded=0;" parent="1" vertex="1">
          <mxGeometry x="410" y="165" width="125" height="20" as="geometry" />
        </mxCell>
      </root>
    </mxGraphModel>
  </diagram>
  <diagram id="jdox2GR55mnxJ5PIx-Su" name="Pipelined design">
    <mxGraphModel dx="2300" dy="1705" grid="1" gridSize="10" guides="1" tooltips="1" connect="1" arrows="1" fold="1" page="1" pageScale="1" pageWidth="850" pageHeight="1100" math="1" shadow="0">
      <root>
        <mxCell id="0" />
        <mxCell id="1" parent="0" />
        <mxCell id="_iEBUqRrX1W3b-WpYiwe-1" value="" style="rounded=0;whiteSpace=wrap;html=1;" vertex="1" parent="1">
          <mxGeometry x="270" y="240" width="120" height="160" as="geometry" />
        </mxCell>
        <mxCell id="h9dt8hvXYy7aINe4QFlK-25" style="edgeStyle=orthogonalEdgeStyle;rounded=0;orthogonalLoop=1;jettySize=auto;html=1;entryX=0;entryY=0.75;entryDx=0;entryDy=0;strokeWidth=4;" edge="1" parent="1" target="uaLWQ74-B3uxG1oOBKzD-45">
          <mxGeometry relative="1" as="geometry">
            <mxPoint x="289.97" y="460" as="sourcePoint" />
            <mxPoint x="190" y="330" as="targetPoint" />
            <Array as="points">
              <mxPoint x="140" y="460" />
              <mxPoint x="140" y="390" />
            </Array>
          </mxGeometry>
        </mxCell>
        <mxCell id="h9dt8hvXYy7aINe4QFlK-1" value="&lt;div&gt;&lt;br&gt;&lt;/div&gt;&lt;div&gt;&lt;br&gt;&lt;/div&gt;&lt;div&gt;&lt;br&gt;&lt;/div&gt;" style="rounded=0;whiteSpace=wrap;html=1;" vertex="1" parent="1">
          <mxGeometry x="232" y="430" width="80" height="60" as="geometry" />
        </mxCell>
        <mxCell id="h9dt8hvXYy7aINe4QFlK-2" value="$$\text{Buffer}[0]$$" style="text;html=1;align=center;verticalAlign=middle;whiteSpace=wrap;rounded=0;" vertex="1" parent="1">
          <mxGeometry x="300" y="240" width="60" height="30" as="geometry" />
        </mxCell>
        <mxCell id="h9dt8hvXYy7aINe4QFlK-5" value="$$\text{Buffer}[1]$$" style="text;html=1;align=center;verticalAlign=middle;whiteSpace=wrap;rounded=0;" vertex="1" parent="1">
          <mxGeometry x="300" y="270" width="60" height="30" as="geometry" />
        </mxCell>
        <mxCell id="h9dt8hvXYy7aINe4QFlK-6" value="$$\dots$$" style="text;html=1;align=center;verticalAlign=middle;whiteSpace=wrap;rounded=0;" vertex="1" parent="1">
          <mxGeometry x="300" y="310" width="60" height="25" as="geometry" />
        </mxCell>
        <mxCell id="h9dt8hvXYy7aINe4QFlK-8" value="$$\text{Buffer}[i-1]$$" style="text;html=1;align=center;verticalAlign=middle;whiteSpace=wrap;rounded=0;" vertex="1" parent="1">
          <mxGeometry x="300" y="340" width="60" height="30" as="geometry" />
        </mxCell>
        <mxCell id="h9dt8hvXYy7aINe4QFlK-9" value="$$\text{Buffer}[i]$$" style="text;html=1;align=center;verticalAlign=middle;whiteSpace=wrap;rounded=0;" vertex="1" parent="1">
          <mxGeometry x="300" y="370" width="60" height="30" as="geometry" />
        </mxCell>
        <mxCell id="h9dt8hvXYy7aINe4QFlK-11" value="" style="endArrow=none;dashed=1;html=1;strokeWidth=1;rounded=0;" edge="1" parent="1">
          <mxGeometry width="50" height="50" relative="1" as="geometry">
            <mxPoint x="270" y="270" as="sourcePoint" />
            <mxPoint x="390" y="270" as="targetPoint" />
          </mxGeometry>
        </mxCell>
        <mxCell id="h9dt8hvXYy7aINe4QFlK-13" value="" style="endArrow=none;dashed=1;html=1;strokeWidth=1;rounded=0;entryX=1;entryY=0.375;entryDx=0;entryDy=0;entryPerimeter=0;" edge="1" parent="1" target="_iEBUqRrX1W3b-WpYiwe-1">
          <mxGeometry width="50" height="50" relative="1" as="geometry">
            <mxPoint x="270" y="300" as="sourcePoint" />
            <mxPoint x="400" y="300" as="targetPoint" />
          </mxGeometry>
        </mxCell>
        <mxCell id="h9dt8hvXYy7aINe4QFlK-14" value="" style="endArrow=none;dashed=1;html=1;strokeWidth=1;rounded=0;entryX=1;entryY=0.375;entryDx=0;entryDy=0;entryPerimeter=0;" edge="1" parent="1">
          <mxGeometry width="50" height="50" relative="1" as="geometry">
            <mxPoint x="270" y="369.6" as="sourcePoint" />
            <mxPoint x="390" y="369.6" as="targetPoint" />
          </mxGeometry>
        </mxCell>
        <mxCell id="h9dt8hvXYy7aINe4QFlK-15" value="" style="endArrow=none;dashed=1;html=1;strokeWidth=1;rounded=0;entryX=1;entryY=0.375;entryDx=0;entryDy=0;entryPerimeter=0;" edge="1" parent="1">
          <mxGeometry width="50" height="50" relative="1" as="geometry">
            <mxPoint x="270" y="339.6" as="sourcePoint" />
            <mxPoint x="390" y="339.6" as="targetPoint" />
          </mxGeometry>
        </mxCell>
        <mxCell id="h9dt8hvXYy7aINe4QFlK-18" value="" style="endArrow=classic;html=1;rounded=0;strokeWidth=3;exitX=1;exitY=0.5;exitDx=0;exitDy=0;" edge="1" parent="1" source="_iEBUqRrX1W3b-WpYiwe-1">
          <mxGeometry width="50" height="50" relative="1" as="geometry">
            <mxPoint x="320" y="320" as="sourcePoint" />
            <mxPoint x="640" y="320" as="targetPoint" />
          </mxGeometry>
        </mxCell>
        <mxCell id="h9dt8hvXYy7aINe4QFlK-19" value="" style="endArrow=classic;html=1;rounded=0;entryX=1;entryY=0.5;entryDx=0;entryDy=0;strokeWidth=3;" edge="1" parent="1" target="h9dt8hvXYy7aINe4QFlK-1">
          <mxGeometry width="50" height="50" relative="1" as="geometry">
            <mxPoint x="430" y="320" as="sourcePoint" />
            <mxPoint x="560" y="384.76" as="targetPoint" />
            <Array as="points">
              <mxPoint x="430" y="460" />
            </Array>
          </mxGeometry>
        </mxCell>
        <mxCell id="h9dt8hvXYy7aINe4QFlK-21" value="" style="endArrow=classic;html=1;rounded=0;strokeWidth=2;entryX=0;entryY=0.25;entryDx=0;entryDy=0;exitX=1;exitY=0.5;exitDx=0;exitDy=0;" edge="1" parent="1" source="uaLWQ74-B3uxG1oOBKzD-51" target="uaLWQ74-B3uxG1oOBKzD-45">
          <mxGeometry width="50" height="50" relative="1" as="geometry">
            <mxPoint x="120" y="350" as="sourcePoint" />
            <mxPoint x="140" y="370" as="targetPoint" />
            <Array as="points">
              <mxPoint x="140" y="350" />
            </Array>
          </mxGeometry>
        </mxCell>
        <mxCell id="h9dt8hvXYy7aINe4QFlK-24" value="&lt;b&gt;$$\ll$$&lt;/b&gt;" style="text;html=1;align=center;verticalAlign=middle;whiteSpace=wrap;rounded=0;" vertex="1" parent="1">
          <mxGeometry x="242" y="450" width="60" height="30" as="geometry" />
        </mxCell>
        <mxCell id="h9dt8hvXYy7aINe4QFlK-33" style="edgeStyle=orthogonalEdgeStyle;rounded=0;orthogonalLoop=1;jettySize=auto;html=1;entryX=0;entryY=0.563;entryDx=0;entryDy=0;entryPerimeter=0;strokeWidth=4;" edge="1" parent="1">
          <mxGeometry relative="1" as="geometry">
            <mxPoint x="230" y="370" as="sourcePoint" />
            <mxPoint x="270" y="370.0799999999999" as="targetPoint" />
          </mxGeometry>
        </mxCell>
        <mxCell id="SZYNa1HyEZIwpOAcqFo0-31" value="" style="group" vertex="1" connectable="0" parent="1">
          <mxGeometry x="460" y="380" width="120" height="160" as="geometry" />
        </mxCell>
        <mxCell id="SZYNa1HyEZIwpOAcqFo0-21" value="" style="rounded=0;whiteSpace=wrap;html=1;" vertex="1" parent="SZYNa1HyEZIwpOAcqFo0-31">
          <mxGeometry width="120" height="160" as="geometry" />
        </mxCell>
        <mxCell id="SZYNa1HyEZIwpOAcqFo0-22" value="$$\text{Sample}[0]$$" style="text;html=1;align=center;verticalAlign=middle;whiteSpace=wrap;rounded=0;" vertex="1" parent="SZYNa1HyEZIwpOAcqFo0-31">
          <mxGeometry x="30" width="60" height="30" as="geometry" />
        </mxCell>
        <mxCell id="SZYNa1HyEZIwpOAcqFo0-23" value="$$\text{Sample}[1]$$" style="text;html=1;align=center;verticalAlign=middle;whiteSpace=wrap;rounded=0;" vertex="1" parent="SZYNa1HyEZIwpOAcqFo0-31">
          <mxGeometry x="30" y="30" width="60" height="30" as="geometry" />
        </mxCell>
        <mxCell id="SZYNa1HyEZIwpOAcqFo0-24" value="$$\dots$$" style="text;html=1;align=center;verticalAlign=middle;whiteSpace=wrap;rounded=0;" vertex="1" parent="SZYNa1HyEZIwpOAcqFo0-31">
          <mxGeometry x="30" y="65" width="60" height="30" as="geometry" />
        </mxCell>
        <mxCell id="SZYNa1HyEZIwpOAcqFo0-25" value="$$\text{Sample}[i-1]$$" style="text;html=1;align=center;verticalAlign=middle;whiteSpace=wrap;rounded=0;" vertex="1" parent="SZYNa1HyEZIwpOAcqFo0-31">
          <mxGeometry x="30" y="100" width="60" height="30" as="geometry" />
        </mxCell>
        <mxCell id="SZYNa1HyEZIwpOAcqFo0-26" value="$$\text{Sample}[i]$$" style="text;html=1;align=center;verticalAlign=middle;whiteSpace=wrap;rounded=0;" vertex="1" parent="SZYNa1HyEZIwpOAcqFo0-31">
          <mxGeometry x="30" y="130" width="60" height="30" as="geometry" />
        </mxCell>
        <mxCell id="SZYNa1HyEZIwpOAcqFo0-27" value="" style="endArrow=none;dashed=1;html=1;strokeWidth=1;rounded=0;" edge="1" parent="SZYNa1HyEZIwpOAcqFo0-31">
          <mxGeometry width="50" height="50" relative="1" as="geometry">
            <mxPoint y="30" as="sourcePoint" />
            <mxPoint x="120" y="30" as="targetPoint" />
          </mxGeometry>
        </mxCell>
        <mxCell id="SZYNa1HyEZIwpOAcqFo0-28" value="" style="endArrow=none;dashed=1;html=1;strokeWidth=1;rounded=0;entryX=1;entryY=0.375;entryDx=0;entryDy=0;entryPerimeter=0;" edge="1" parent="SZYNa1HyEZIwpOAcqFo0-31" target="SZYNa1HyEZIwpOAcqFo0-21">
          <mxGeometry width="50" height="50" relative="1" as="geometry">
            <mxPoint y="60" as="sourcePoint" />
            <mxPoint x="130" y="60" as="targetPoint" />
          </mxGeometry>
        </mxCell>
        <mxCell id="SZYNa1HyEZIwpOAcqFo0-29" value="" style="endArrow=none;dashed=1;html=1;strokeWidth=1;rounded=0;entryX=1;entryY=0.375;entryDx=0;entryDy=0;entryPerimeter=0;" edge="1" parent="SZYNa1HyEZIwpOAcqFo0-31">
          <mxGeometry width="50" height="50" relative="1" as="geometry">
            <mxPoint y="129.60000000000002" as="sourcePoint" />
            <mxPoint x="120" y="129.60000000000002" as="targetPoint" />
          </mxGeometry>
        </mxCell>
        <mxCell id="SZYNa1HyEZIwpOAcqFo0-30" value="" style="endArrow=none;dashed=1;html=1;strokeWidth=1;rounded=0;entryX=1;entryY=0.375;entryDx=0;entryDy=0;entryPerimeter=0;" edge="1" parent="SZYNa1HyEZIwpOAcqFo0-31">
          <mxGeometry width="50" height="50" relative="1" as="geometry">
            <mxPoint y="99.60000000000002" as="sourcePoint" />
            <mxPoint x="120" y="99.60000000000002" as="targetPoint" />
          </mxGeometry>
        </mxCell>
        <mxCell id="SZYNa1HyEZIwpOAcqFo0-32" value="" style="endArrow=classic;html=1;rounded=0;exitX=1;exitY=0.5;exitDx=0;exitDy=0;strokeWidth=3;" edge="1" parent="1" source="SZYNa1HyEZIwpOAcqFo0-21">
          <mxGeometry width="50" height="50" relative="1" as="geometry">
            <mxPoint x="520" y="440" as="sourcePoint" />
            <mxPoint x="640" y="360" as="targetPoint" />
            <Array as="points">
              <mxPoint x="600" y="460" />
              <mxPoint x="600" y="360" />
            </Array>
          </mxGeometry>
        </mxCell>
        <mxCell id="SZYNa1HyEZIwpOAcqFo0-37" value="" style="group" vertex="1" connectable="0" parent="1">
          <mxGeometry x="710" y="300" width="57.5" height="80" as="geometry" />
        </mxCell>
        <mxCell id="SZYNa1HyEZIwpOAcqFo0-39" value="" style="rounded=0;whiteSpace=wrap;html=1;" vertex="1" parent="SZYNa1HyEZIwpOAcqFo0-37">
          <mxGeometry width="50" height="80" as="geometry" />
        </mxCell>
        <mxCell id="SZYNa1HyEZIwpOAcqFo0-40" value="" style="endArrow=none;html=1;rounded=0;entryX=0.7;entryY=0.998;entryDx=0;entryDy=0;entryPerimeter=0;" edge="1" parent="SZYNa1HyEZIwpOAcqFo0-37" target="SZYNa1HyEZIwpOAcqFo0-39">
          <mxGeometry width="50" height="50" relative="1" as="geometry">
            <mxPoint x="25" y="80" as="sourcePoint" />
            <mxPoint x="40.999999999999886" y="79.68" as="targetPoint" />
            <Array as="points">
              <mxPoint x="30" y="70" />
            </Array>
          </mxGeometry>
        </mxCell>
        <mxCell id="uaLWQ74-B3uxG1oOBKzD-60" value="$$\text{mult}$$" style="text;html=1;align=center;verticalAlign=middle;whiteSpace=wrap;rounded=0;" vertex="1" parent="SZYNa1HyEZIwpOAcqFo0-37">
          <mxGeometry y="15" width="50" height="30" as="geometry" />
        </mxCell>
        <mxCell id="uaLWQ74-B3uxG1oOBKzD-61" value="$$\text{result}$$" style="text;html=1;align=center;verticalAlign=middle;whiteSpace=wrap;rounded=0;" vertex="1" parent="SZYNa1HyEZIwpOAcqFo0-37">
          <mxGeometry y="30" width="50" height="30" as="geometry" />
        </mxCell>
        <mxCell id="SZYNa1HyEZIwpOAcqFo0-42" value="" style="endArrow=classic;html=1;rounded=0;entryX=0;entryY=0.5;entryDx=0;entryDy=0;strokeWidth=3;" edge="1" parent="1" target="SZYNa1HyEZIwpOAcqFo0-39">
          <mxGeometry width="50" height="50" relative="1" as="geometry">
            <mxPoint x="680" y="340" as="sourcePoint" />
            <mxPoint x="710" y="340" as="targetPoint" />
            <Array as="points">
              <mxPoint x="700" y="340" />
            </Array>
          </mxGeometry>
        </mxCell>
        <mxCell id="SZYNa1HyEZIwpOAcqFo0-43" value="&lt;font data-font-src=&quot;https://fonts.cdnfonts.com/css/latin-modern-roman&quot; face=&quot;lm roman&quot;&gt;Incoming sample accumulator&lt;/font&gt;" style="text;html=1;align=center;verticalAlign=middle;whiteSpace=wrap;rounded=0;" vertex="1" parent="1">
          <mxGeometry x="265" y="210" width="130" height="30" as="geometry" />
        </mxCell>
        <mxCell id="SZYNa1HyEZIwpOAcqFo0-45" value="&lt;div&gt;&lt;font data-font-src=&quot;https://fonts.cdnfonts.com/css/latin-modern-roman&quot; face=&quot;lm roman&quot;&gt;Shift sample&lt;/font&gt;&lt;/div&gt;&lt;div&gt;&lt;font data-font-src=&quot;https://fonts.cdnfonts.com/css/latin-modern-roman&quot; face=&quot;lm roman&quot;&gt;operation&lt;/font&gt;&lt;/div&gt;" style="text;html=1;align=center;verticalAlign=middle;whiteSpace=wrap;rounded=0;" vertex="1" parent="1">
          <mxGeometry x="213" y="490" width="118" height="30" as="geometry" />
        </mxCell>
        <mxCell id="SZYNa1HyEZIwpOAcqFo0-65" style="edgeStyle=orthogonalEdgeStyle;rounded=0;orthogonalLoop=1;jettySize=auto;html=1;strokeWidth=2;" edge="1" parent="1" source="SZYNa1HyEZIwpOAcqFo0-46">
          <mxGeometry relative="1" as="geometry">
            <mxPoint x="1310" y="340" as="targetPoint" />
          </mxGeometry>
        </mxCell>
        <mxCell id="SZYNa1HyEZIwpOAcqFo0-46" value="&lt;div&gt;$$\text{Summation}$$&lt;/div&gt;&lt;div&gt;&lt;br&gt;&lt;/div&gt;&lt;div&gt;&lt;br&gt;&lt;/div&gt;&lt;div&gt;&lt;br&gt;&lt;/div&gt;" style="rounded=0;whiteSpace=wrap;html=1;" vertex="1" parent="1">
          <mxGeometry x="1020" y="300" width="80" height="80" as="geometry" />
        </mxCell>
        <mxCell id="SZYNa1HyEZIwpOAcqFo0-47" value="" style="group" vertex="1" connectable="0" parent="1">
          <mxGeometry x="790" y="260" width="120" height="160" as="geometry" />
        </mxCell>
        <mxCell id="SZYNa1HyEZIwpOAcqFo0-48" value="" style="rounded=0;whiteSpace=wrap;html=1;" vertex="1" parent="SZYNa1HyEZIwpOAcqFo0-47">
          <mxGeometry width="120" height="160" as="geometry" />
        </mxCell>
        <mxCell id="SZYNa1HyEZIwpOAcqFo0-49" value="$$\text{mult_result}[0]$$" style="text;html=1;align=center;verticalAlign=middle;whiteSpace=wrap;rounded=0;" vertex="1" parent="SZYNa1HyEZIwpOAcqFo0-47">
          <mxGeometry x="30" width="60" height="30" as="geometry" />
        </mxCell>
        <mxCell id="SZYNa1HyEZIwpOAcqFo0-50" value="$$\text{mult_result}[1]$$" style="text;html=1;align=center;verticalAlign=middle;whiteSpace=wrap;rounded=0;" vertex="1" parent="SZYNa1HyEZIwpOAcqFo0-47">
          <mxGeometry x="30" y="30" width="60" height="30" as="geometry" />
        </mxCell>
        <mxCell id="SZYNa1HyEZIwpOAcqFo0-51" value="$$\dots$$" style="text;html=1;align=center;verticalAlign=middle;whiteSpace=wrap;rounded=0;" vertex="1" parent="SZYNa1HyEZIwpOAcqFo0-47">
          <mxGeometry x="30" y="65" width="60" height="30" as="geometry" />
        </mxCell>
        <mxCell id="SZYNa1HyEZIwpOAcqFo0-52" value="$$\text{mult_result}[i-1]$$" style="text;html=1;align=center;verticalAlign=middle;whiteSpace=wrap;rounded=0;" vertex="1" parent="SZYNa1HyEZIwpOAcqFo0-47">
          <mxGeometry x="30" y="100" width="60" height="30" as="geometry" />
        </mxCell>
        <mxCell id="SZYNa1HyEZIwpOAcqFo0-53" value="$$\text{mult_result}[i]$$" style="text;html=1;align=center;verticalAlign=middle;whiteSpace=wrap;rounded=0;" vertex="1" parent="SZYNa1HyEZIwpOAcqFo0-47">
          <mxGeometry x="30" y="130" width="60" height="30" as="geometry" />
        </mxCell>
        <mxCell id="SZYNa1HyEZIwpOAcqFo0-54" value="" style="endArrow=none;dashed=1;html=1;strokeWidth=1;rounded=0;" edge="1" parent="SZYNa1HyEZIwpOAcqFo0-47">
          <mxGeometry width="50" height="50" relative="1" as="geometry">
            <mxPoint y="30" as="sourcePoint" />
            <mxPoint x="120" y="30" as="targetPoint" />
          </mxGeometry>
        </mxCell>
        <mxCell id="SZYNa1HyEZIwpOAcqFo0-55" value="" style="endArrow=none;dashed=1;html=1;strokeWidth=1;rounded=0;entryX=1;entryY=0.375;entryDx=0;entryDy=0;entryPerimeter=0;" edge="1" parent="SZYNa1HyEZIwpOAcqFo0-47" target="SZYNa1HyEZIwpOAcqFo0-48">
          <mxGeometry width="50" height="50" relative="1" as="geometry">
            <mxPoint y="60" as="sourcePoint" />
            <mxPoint x="130" y="60" as="targetPoint" />
          </mxGeometry>
        </mxCell>
        <mxCell id="SZYNa1HyEZIwpOAcqFo0-56" value="" style="endArrow=none;dashed=1;html=1;strokeWidth=1;rounded=0;entryX=1;entryY=0.375;entryDx=0;entryDy=0;entryPerimeter=0;" edge="1" parent="SZYNa1HyEZIwpOAcqFo0-47">
          <mxGeometry width="50" height="50" relative="1" as="geometry">
            <mxPoint y="129.60000000000002" as="sourcePoint" />
            <mxPoint x="120" y="129.60000000000002" as="targetPoint" />
          </mxGeometry>
        </mxCell>
        <mxCell id="SZYNa1HyEZIwpOAcqFo0-57" value="" style="endArrow=none;dashed=1;html=1;strokeWidth=1;rounded=0;entryX=1;entryY=0.375;entryDx=0;entryDy=0;entryPerimeter=0;" edge="1" parent="SZYNa1HyEZIwpOAcqFo0-47">
          <mxGeometry width="50" height="50" relative="1" as="geometry">
            <mxPoint y="99.60000000000002" as="sourcePoint" />
            <mxPoint x="120" y="99.60000000000002" as="targetPoint" />
          </mxGeometry>
        </mxCell>
        <mxCell id="SZYNa1HyEZIwpOAcqFo0-61" style="edgeStyle=orthogonalEdgeStyle;rounded=0;orthogonalLoop=1;jettySize=auto;html=1;entryX=0;entryY=0.5;entryDx=0;entryDy=0;strokeWidth=3;" edge="1" parent="1" source="SZYNa1HyEZIwpOAcqFo0-39" target="SZYNa1HyEZIwpOAcqFo0-48">
          <mxGeometry relative="1" as="geometry" />
        </mxCell>
        <mxCell id="SZYNa1HyEZIwpOAcqFo0-66" style="edgeStyle=orthogonalEdgeStyle;rounded=0;orthogonalLoop=1;jettySize=auto;html=1;entryX=0;entryY=0.5;entryDx=0;entryDy=0;strokeWidth=3;" edge="1" parent="1" source="SZYNa1HyEZIwpOAcqFo0-48" target="SZYNa1HyEZIwpOAcqFo0-46">
          <mxGeometry relative="1" as="geometry" />
        </mxCell>
        <mxCell id="uaLWQ74-B3uxG1oOBKzD-20" value="$$\text{clock counter}$$" style="text;html=1;align=center;verticalAlign=middle;whiteSpace=wrap;rounded=0;" vertex="1" parent="1">
          <mxGeometry x="1175" y="445" width="80" height="30" as="geometry" />
        </mxCell>
        <mxCell id="uaLWQ74-B3uxG1oOBKzD-21" value="time" style="rounded=0;whiteSpace=wrap;html=1;" vertex="1" parent="1">
          <mxGeometry x="1295" y="440" width="80" height="35" as="geometry" />
        </mxCell>
        <mxCell id="uaLWQ74-B3uxG1oOBKzD-22" value="" style="endArrow=classic;html=1;rounded=0;exitX=1;exitY=0.5;exitDx=0;exitDy=0;entryX=0;entryY=0.571;entryDx=0;entryDy=0;entryPerimeter=0;endFill=1;" edge="1" parent="1" source="uaLWQ74-B3uxG1oOBKzD-20" target="uaLWQ74-B3uxG1oOBKzD-21">
          <mxGeometry width="50" height="50" relative="1" as="geometry">
            <mxPoint x="1110" y="500" as="sourcePoint" />
            <mxPoint x="1200" y="500" as="targetPoint" />
            <Array as="points" />
          </mxGeometry>
        </mxCell>
        <mxCell id="uaLWQ74-B3uxG1oOBKzD-23" value="" style="group" vertex="1" connectable="0" parent="1">
          <mxGeometry x="1315" y="320" width="40" height="80" as="geometry" />
        </mxCell>
        <mxCell id="uaLWQ74-B3uxG1oOBKzD-24" value="" style="endArrow=none;html=1;rounded=0;" edge="1" parent="uaLWQ74-B3uxG1oOBKzD-23">
          <mxGeometry width="50" height="50" relative="1" as="geometry">
            <mxPoint x="35" y="40" as="sourcePoint" />
            <mxPoint x="15" y="40" as="targetPoint" />
            <Array as="points">
              <mxPoint x="35" y="20" />
              <mxPoint x="-5" />
              <mxPoint x="-5" y="30" />
            </Array>
          </mxGeometry>
        </mxCell>
        <mxCell id="uaLWQ74-B3uxG1oOBKzD-25" value="A&amp;lt;B" style="edgeLabel;html=1;align=center;verticalAlign=middle;resizable=0;points=[];rotation=-90;" vertex="1" connectable="0" parent="uaLWQ74-B3uxG1oOBKzD-24">
          <mxGeometry x="-0.8463" y="2" relative="1" as="geometry">
            <mxPoint x="-8" y="9" as="offset" />
          </mxGeometry>
        </mxCell>
        <mxCell id="uaLWQ74-B3uxG1oOBKzD-26" value="" style="endArrow=none;html=1;rounded=0;" edge="1" parent="uaLWQ74-B3uxG1oOBKzD-23">
          <mxGeometry width="50" height="50" relative="1" as="geometry">
            <mxPoint x="35" y="40" as="sourcePoint" />
            <mxPoint x="15" y="40" as="targetPoint" />
            <Array as="points">
              <mxPoint x="35" y="60" />
              <mxPoint x="-5" y="80" />
              <mxPoint x="-5" y="50" />
            </Array>
          </mxGeometry>
        </mxCell>
        <mxCell id="uaLWQ74-B3uxG1oOBKzD-27" value="A" style="edgeLabel;html=1;align=center;verticalAlign=middle;resizable=0;points=[];rotation=-90;" vertex="1" connectable="0" parent="uaLWQ74-B3uxG1oOBKzD-23">
          <mxGeometry x="5" y="60.002380952380975" as="geometry" />
        </mxCell>
        <mxCell id="uaLWQ74-B3uxG1oOBKzD-28" value="B" style="edgeLabel;html=1;align=center;verticalAlign=middle;resizable=0;points=[];rotation=-90;" vertex="1" connectable="0" parent="uaLWQ74-B3uxG1oOBKzD-23">
          <mxGeometry x="5" y="20.002380952380975" as="geometry">
            <mxPoint x="-6.123233995736766e-17" y="-1" as="offset" />
          </mxGeometry>
        </mxCell>
        <mxCell id="uaLWQ74-B3uxG1oOBKzD-29" value="" style="group" vertex="1" connectable="0" parent="1">
          <mxGeometry x="1160" y="360" width="80" height="40.5" as="geometry" />
        </mxCell>
        <mxCell id="uaLWQ74-B3uxG1oOBKzD-30" style="edgeStyle=orthogonalEdgeStyle;rounded=0;orthogonalLoop=1;jettySize=auto;html=1;strokeWidth=2;" edge="1" parent="uaLWQ74-B3uxG1oOBKzD-29" source="uaLWQ74-B3uxG1oOBKzD-32">
          <mxGeometry relative="1" as="geometry">
            <mxPoint x="150" y="20" as="targetPoint" />
          </mxGeometry>
        </mxCell>
        <mxCell id="uaLWQ74-B3uxG1oOBKzD-31" value="" style="group" vertex="1" connectable="0" parent="uaLWQ74-B3uxG1oOBKzD-29">
          <mxGeometry x="40" width="80" height="40.5" as="geometry" />
        </mxCell>
        <mxCell id="uaLWQ74-B3uxG1oOBKzD-32" value="&lt;div&gt;Max score&lt;/div&gt;" style="rounded=0;whiteSpace=wrap;html=1;" vertex="1" parent="uaLWQ74-B3uxG1oOBKzD-31">
          <mxGeometry width="80" height="40" as="geometry" />
        </mxCell>
        <mxCell id="uaLWQ74-B3uxG1oOBKzD-33" value="" style="triangle;whiteSpace=wrap;html=1;rotation=-90;" vertex="1" parent="uaLWQ74-B3uxG1oOBKzD-31">
          <mxGeometry x="65" y="27" width="10" height="15" as="geometry" />
        </mxCell>
        <mxCell id="uaLWQ74-B3uxG1oOBKzD-34" value="" style="endArrow=classic;html=1;rounded=0;strokeWidth=2;" edge="1" parent="1">
          <mxGeometry width="50" height="50" relative="1" as="geometry">
            <mxPoint x="1350" y="360" as="sourcePoint" />
            <mxPoint x="1270" y="400" as="targetPoint" />
            <Array as="points">
              <mxPoint x="1365" y="360" />
              <mxPoint x="1365" y="420" />
              <mxPoint x="1270" y="420" />
            </Array>
          </mxGeometry>
        </mxCell>
        <mxCell id="uaLWQ74-B3uxG1oOBKzD-35" value="" style="triangle;whiteSpace=wrap;html=1;rotation=90;" vertex="1" parent="1">
          <mxGeometry x="1360" y="437.5" width="10" height="15" as="geometry" />
        </mxCell>
        <mxCell id="uaLWQ74-B3uxG1oOBKzD-36" value="" style="endArrow=classic;html=1;rounded=0;entryX=0;entryY=0.5;entryDx=0;entryDy=0;strokeWidth=2;" edge="1" parent="1">
          <mxGeometry width="50" height="50" relative="1" as="geometry">
            <mxPoint x="1365" y="420" as="sourcePoint" />
            <mxPoint x="1365" y="439.5" as="targetPoint" />
          </mxGeometry>
        </mxCell>
        <mxCell id="uaLWQ74-B3uxG1oOBKzD-37" value="" style="endArrow=classic;html=1;rounded=0;exitX=1;exitY=0.5;exitDx=0;exitDy=0;entryX=0;entryY=0.5;entryDx=0;entryDy=0;endFill=1;" edge="1" parent="1" target="uaLWQ74-B3uxG1oOBKzD-38">
          <mxGeometry width="50" height="50" relative="1" as="geometry">
            <mxPoint x="1375" y="460" as="sourcePoint" />
            <mxPoint x="1415" y="460" as="targetPoint" />
            <Array as="points" />
          </mxGeometry>
        </mxCell>
        <mxCell id="uaLWQ74-B3uxG1oOBKzD-38" value="$$\text{Time of flight}$$" style="text;html=1;align=center;verticalAlign=middle;whiteSpace=wrap;rounded=0;" vertex="1" parent="1">
          <mxGeometry x="1420" y="445" width="90" height="30" as="geometry" />
        </mxCell>
        <mxCell id="uaLWQ74-B3uxG1oOBKzD-39" value="$$\sum$$" style="text;html=1;align=center;verticalAlign=middle;whiteSpace=wrap;rounded=0;" vertex="1" parent="1">
          <mxGeometry x="1030" y="335" width="60" height="30" as="geometry" />
        </mxCell>
        <mxCell id="uaLWQ74-B3uxG1oOBKzD-40" value="" style="group" vertex="1" connectable="0" parent="1">
          <mxGeometry x="1150" y="300" width="50" height="80" as="geometry" />
        </mxCell>
        <mxCell id="uaLWQ74-B3uxG1oOBKzD-41" value="" style="rounded=0;whiteSpace=wrap;html=1;" vertex="1" parent="uaLWQ74-B3uxG1oOBKzD-40">
          <mxGeometry x="-40" width="50" height="80" as="geometry" />
        </mxCell>
        <mxCell id="uaLWQ74-B3uxG1oOBKzD-42" value="" style="endArrow=none;html=1;rounded=0;entryX=0.7;entryY=0.998;entryDx=0;entryDy=0;entryPerimeter=0;" edge="1" parent="uaLWQ74-B3uxG1oOBKzD-40" target="uaLWQ74-B3uxG1oOBKzD-41">
          <mxGeometry width="50" height="50" relative="1" as="geometry">
            <mxPoint x="-15" y="80" as="sourcePoint" />
            <mxPoint x="0.9999999999998863" y="79.68" as="targetPoint" />
            <Array as="points">
              <mxPoint x="-10" y="70" />
            </Array>
          </mxGeometry>
        </mxCell>
        <mxCell id="uaLWQ74-B3uxG1oOBKzD-68" value="$$\text{xcorr}$$" style="text;html=1;align=center;verticalAlign=middle;whiteSpace=wrap;rounded=0;" vertex="1" parent="uaLWQ74-B3uxG1oOBKzD-40">
          <mxGeometry x="-40" y="17.5" width="50" height="30" as="geometry" />
        </mxCell>
        <mxCell id="uaLWQ74-B3uxG1oOBKzD-43" value="" style="group" vertex="1" connectable="0" parent="1">
          <mxGeometry x="180" y="330" width="50" height="80" as="geometry" />
        </mxCell>
        <mxCell id="uaLWQ74-B3uxG1oOBKzD-45" value="" style="rounded=0;whiteSpace=wrap;html=1;" vertex="1" parent="uaLWQ74-B3uxG1oOBKzD-43">
          <mxGeometry width="50" height="80" as="geometry" />
        </mxCell>
        <mxCell id="uaLWQ74-B3uxG1oOBKzD-46" value="" style="endArrow=none;html=1;rounded=0;entryX=0.7;entryY=0.998;entryDx=0;entryDy=0;entryPerimeter=0;" edge="1" parent="uaLWQ74-B3uxG1oOBKzD-43" target="uaLWQ74-B3uxG1oOBKzD-45">
          <mxGeometry width="50" height="50" relative="1" as="geometry">
            <mxPoint x="25" y="80" as="sourcePoint" />
            <mxPoint x="40.999999999999886" y="79.68" as="targetPoint" />
            <Array as="points">
              <mxPoint x="30" y="70" />
            </Array>
          </mxGeometry>
        </mxCell>
        <mxCell id="uaLWQ74-B3uxG1oOBKzD-63" value="$$\text{Sample}$$" style="text;html=1;align=center;verticalAlign=middle;whiteSpace=wrap;rounded=0;" vertex="1" parent="uaLWQ74-B3uxG1oOBKzD-43">
          <mxGeometry y="20" width="50" height="30" as="geometry" />
        </mxCell>
        <mxCell id="uaLWQ74-B3uxG1oOBKzD-64" value="$$\text{Buffer}$$" style="text;html=1;align=center;verticalAlign=middle;whiteSpace=wrap;rounded=0;" vertex="1" parent="uaLWQ74-B3uxG1oOBKzD-43">
          <mxGeometry y="35" width="50" height="30" as="geometry" />
        </mxCell>
        <mxCell id="uaLWQ74-B3uxG1oOBKzD-51" value="$$\text{ADC sample}$$" style="text;html=1;align=center;verticalAlign=middle;whiteSpace=wrap;rounded=0;" vertex="1" parent="1">
          <mxGeometry x="10" y="335" width="90" height="30" as="geometry" />
        </mxCell>
        <mxCell id="uaLWQ74-B3uxG1oOBKzD-70" value="$$\text{Shifter}$$" style="text;html=1;align=center;verticalAlign=middle;whiteSpace=wrap;rounded=0;" vertex="1" parent="1">
          <mxGeometry x="250" y="430" width="47" height="30" as="geometry" />
        </mxCell>
        <mxCell id="uaLWQ74-B3uxG1oOBKzD-74" value="&lt;font face=&quot;lm roman&quot;&gt;Known sample lookup&lt;br&gt;&lt;/font&gt;" style="text;html=1;align=center;verticalAlign=middle;whiteSpace=wrap;rounded=0;" vertex="1" parent="1">
          <mxGeometry x="455" y="350" width="130" height="30" as="geometry" />
        </mxCell>
        <mxCell id="uaLWQ74-B3uxG1oOBKzD-75" value="&lt;font face=&quot;lm roman&quot;&gt;Multiplication result&lt;br&gt;&lt;/font&gt;" style="text;html=1;align=center;verticalAlign=middle;whiteSpace=wrap;rounded=0;" vertex="1" parent="1">
          <mxGeometry x="790" y="230" width="120" height="30" as="geometry" />
        </mxCell>
        <mxCell id="uaLWQ74-B3uxG1oOBKzD-76" value="&lt;font face=&quot;lm roman&quot;&gt;Maximum detection&lt;br&gt;&lt;/font&gt;" style="text;html=1;align=center;verticalAlign=middle;whiteSpace=wrap;rounded=0;" vertex="1" parent="1">
          <mxGeometry x="1340" y="305" width="140" height="30" as="geometry" />
        </mxCell>
        <mxCell id="twGgErXmCMK1PzvlmlEB-1" value="" style="endArrow=none;html=1;rounded=0;" edge="1" parent="1">
          <mxGeometry width="50" height="50" relative="1" as="geometry">
            <mxPoint x="470" y="330" as="sourcePoint" />
            <mxPoint x="480" y="310" as="targetPoint" />
          </mxGeometry>
        </mxCell>
        <mxCell id="twGgErXmCMK1PzvlmlEB-3" value="$$i \cdot \text{sample_size}$$" style="text;html=1;align=center;verticalAlign=middle;whiteSpace=wrap;rounded=0;" vertex="1" parent="1">
          <mxGeometry x="430" y="290" width="90" height="20" as="geometry" />
        </mxCell>
        <mxCell id="twGgErXmCMK1PzvlmlEB-4" value="$$\text{sample_size}$$" style="text;html=1;align=center;verticalAlign=middle;whiteSpace=wrap;rounded=0;" vertex="1" parent="1">
          <mxGeometry x="90" y="320" width="90" height="20" as="geometry" />
        </mxCell>
        <mxCell id="twGgErXmCMK1PzvlmlEB-5" value="" style="endArrow=none;html=1;rounded=0;" edge="1" parent="1">
          <mxGeometry width="50" height="50" relative="1" as="geometry">
            <mxPoint x="130" y="360" as="sourcePoint" />
            <mxPoint x="140" y="340" as="targetPoint" />
          </mxGeometry>
        </mxCell>
        <mxCell id="twGgErXmCMK1PzvlmlEB-7" value="$$i \cdot\text{2sample_size}$$" style="text;html=1;align=center;verticalAlign=middle;whiteSpace=wrap;rounded=0;" vertex="1" parent="1">
          <mxGeometry x="920" y="312.5" width="90" height="20" as="geometry" />
        </mxCell>
        <mxCell id="uaLWQ74-B3uxG1oOBKzD-69" value="$$\text{score}$$" style="text;html=1;align=center;verticalAlign=middle;whiteSpace=wrap;rounded=0;" vertex="1" parent="1">
          <mxGeometry x="1110" y="332.5" width="50" height="30" as="geometry" />
        </mxCell>
        <mxCell id="twGgErXmCMK1PzvlmlEB-11" value="" style="endArrow=none;html=1;rounded=0;" edge="1" parent="1">
          <mxGeometry width="50" height="50" relative="1" as="geometry">
            <mxPoint x="955" y="350" as="sourcePoint" />
            <mxPoint x="965" y="330" as="targetPoint" />
          </mxGeometry>
        </mxCell>
        <mxCell id="twGgErXmCMK1PzvlmlEB-12" value="$$\lceil \log_2(i )\rceil+\text{2sample_size}$$" style="text;html=1;align=center;verticalAlign=middle;whiteSpace=wrap;rounded=0;" vertex="1" parent="1">
          <mxGeometry x="1155" y="310" width="160" height="20" as="geometry" />
        </mxCell>
        <mxCell id="twGgErXmCMK1PzvlmlEB-13" value="" style="endArrow=none;html=1;rounded=0;" edge="1" parent="1">
          <mxGeometry width="50" height="50" relative="1" as="geometry">
            <mxPoint x="1230" y="350" as="sourcePoint" />
            <mxPoint x="1240" y="330" as="targetPoint" />
          </mxGeometry>
        </mxCell>
        <mxCell id="twGgErXmCMK1PzvlmlEB-177" value="" style="group" vertex="1" connectable="0" parent="1">
          <mxGeometry x="650" y="310" width="40" height="80" as="geometry" />
        </mxCell>
        <mxCell id="twGgErXmCMK1PzvlmlEB-178" value="" style="endArrow=none;html=1;rounded=0;" edge="1" parent="twGgErXmCMK1PzvlmlEB-177">
          <mxGeometry width="50" height="50" relative="1" as="geometry">
            <mxPoint x="40" y="40" as="sourcePoint" />
            <mxPoint x="20" y="40" as="targetPoint" />
            <Array as="points">
              <mxPoint x="40" y="60" />
              <mxPoint y="80" />
              <mxPoint y="50" />
            </Array>
          </mxGeometry>
        </mxCell>
        <mxCell id="twGgErXmCMK1PzvlmlEB-179" value="&lt;span style=&quot;&quot;&gt;$$A$$&lt;/span&gt;" style="edgeLabel;html=1;align=center;verticalAlign=middle;resizable=0;points=[];rotation=-90;labelBackgroundColor=none;" vertex="1" connectable="0" parent="twGgErXmCMK1PzvlmlEB-177">
          <mxGeometry x="10" y="60.002380952380975" as="geometry">
            <mxPoint as="offset" />
          </mxGeometry>
        </mxCell>
        <mxCell id="twGgErXmCMK1PzvlmlEB-180" value="$$B$$" style="edgeLabel;html=1;align=center;verticalAlign=middle;resizable=0;points=[];rotation=-90;labelBackgroundColor=none;" vertex="1" connectable="0" parent="twGgErXmCMK1PzvlmlEB-177">
          <mxGeometry x="10" y="20.002380952380975" as="geometry">
            <mxPoint x="-6.123233995736766e-17" y="-1" as="offset" />
          </mxGeometry>
        </mxCell>
        <mxCell id="twGgErXmCMK1PzvlmlEB-181" value="" style="endArrow=none;html=1;rounded=0;" edge="1" parent="twGgErXmCMK1PzvlmlEB-177">
          <mxGeometry width="50" height="50" relative="1" as="geometry">
            <mxPoint x="40" y="40" as="sourcePoint" />
            <mxPoint x="20" y="40" as="targetPoint" />
            <Array as="points">
              <mxPoint x="40" y="20" />
              <mxPoint />
              <mxPoint y="30" />
            </Array>
          </mxGeometry>
        </mxCell>
        <mxCell id="twGgErXmCMK1PzvlmlEB-182" value="&lt;span style=&quot;&quot;&gt;$$A\cdot B $$&lt;/span&gt;" style="edgeLabel;html=1;align=center;verticalAlign=middle;resizable=0;points=[];rotation=-90;labelBackgroundColor=none;" vertex="1" connectable="0" parent="twGgErXmCMK1PzvlmlEB-181">
          <mxGeometry x="-0.8463" y="2" relative="1" as="geometry">
            <mxPoint x="-8" y="9" as="offset" />
          </mxGeometry>
        </mxCell>
      </root>
    </mxGraphModel>
  </diagram>
  <diagram id="NccGqNMAk0WizvEus1jZ" name="Correlator state machine">
    <mxGraphModel dx="2077" dy="909" grid="1" gridSize="10" guides="1" tooltips="1" connect="1" arrows="1" fold="1" page="1" pageScale="1" pageWidth="850" pageHeight="1100" math="1" shadow="0">
      <root>
        <mxCell id="0" />
        <mxCell id="1" parent="0" />
        <mxCell id="foahgZpSh0EGU_1euFhP-1" value="$$i \cdot \text{sample_size}$$" style="text;html=1;align=center;verticalAlign=middle;whiteSpace=wrap;rounded=0;labelBackgroundColor=default;" vertex="1" parent="1">
          <mxGeometry x="45" y="810.5" width="90" height="20" as="geometry" />
        </mxCell>
        <mxCell id="foahgZpSh0EGU_1euFhP-2" value="" style="group" vertex="1" connectable="0" parent="1">
          <mxGeometry x="890" y="790" width="40" height="80" as="geometry" />
        </mxCell>
        <mxCell id="foahgZpSh0EGU_1euFhP-3" value="" style="endArrow=none;html=1;rounded=0;" edge="1" parent="foahgZpSh0EGU_1euFhP-2">
          <mxGeometry width="50" height="50" relative="1" as="geometry">
            <mxPoint x="40" y="40" as="sourcePoint" />
            <mxPoint x="20" y="40" as="targetPoint" />
            <Array as="points">
              <mxPoint x="40" y="60" />
              <mxPoint y="80" />
              <mxPoint y="50" />
            </Array>
          </mxGeometry>
        </mxCell>
        <mxCell id="foahgZpSh0EGU_1euFhP-4" value="&lt;span style=&quot;&quot;&gt;$$A$$&lt;/span&gt;" style="edgeLabel;html=1;align=center;verticalAlign=middle;resizable=0;points=[];rotation=-90;labelBackgroundColor=none;" vertex="1" connectable="0" parent="foahgZpSh0EGU_1euFhP-2">
          <mxGeometry x="10" y="60.002380952380975" as="geometry">
            <mxPoint as="offset" />
          </mxGeometry>
        </mxCell>
        <mxCell id="foahgZpSh0EGU_1euFhP-5" value="$$B$$" style="edgeLabel;html=1;align=center;verticalAlign=middle;resizable=0;points=[];rotation=-90;labelBackgroundColor=none;" vertex="1" connectable="0" parent="foahgZpSh0EGU_1euFhP-2">
          <mxGeometry x="10" y="20.002380952380975" as="geometry">
            <mxPoint x="-6.123233995736766e-17" y="-1" as="offset" />
          </mxGeometry>
        </mxCell>
        <mxCell id="foahgZpSh0EGU_1euFhP-6" value="" style="endArrow=none;html=1;rounded=0;" edge="1" parent="foahgZpSh0EGU_1euFhP-2">
          <mxGeometry width="50" height="50" relative="1" as="geometry">
            <mxPoint x="40" y="40" as="sourcePoint" />
            <mxPoint x="20" y="40" as="targetPoint" />
            <Array as="points">
              <mxPoint x="40" y="20" />
              <mxPoint />
              <mxPoint y="30" />
            </Array>
          </mxGeometry>
        </mxCell>
        <mxCell id="foahgZpSh0EGU_1euFhP-7" value="&lt;span style=&quot;&quot;&gt;$$A\leq B $$&lt;/span&gt;" style="edgeLabel;html=1;align=center;verticalAlign=middle;resizable=0;points=[];rotation=-90;labelBackgroundColor=none;" vertex="1" connectable="0" parent="foahgZpSh0EGU_1euFhP-6">
          <mxGeometry x="-0.8463" y="2" relative="1" as="geometry">
            <mxPoint x="-8" y="9" as="offset" />
          </mxGeometry>
        </mxCell>
        <mxCell id="foahgZpSh0EGU_1euFhP-8" value="$$\text{ADC sample}$$" style="text;html=1;align=center;verticalAlign=middle;whiteSpace=wrap;rounded=0;" vertex="1" parent="1">
          <mxGeometry x="-130" y="1030" width="90" height="20" as="geometry" />
        </mxCell>
        <mxCell id="foahgZpSh0EGU_1euFhP-9" value="" style="endArrow=classic;html=1;rounded=0;exitX=1;exitY=0.5;exitDx=0;exitDy=0;entryX=0;entryY=0.875;entryDx=0;entryDy=0;entryPerimeter=0;strokeWidth=3;" edge="1" parent="1" source="foahgZpSh0EGU_1euFhP-8" target="foahgZpSh0EGU_1euFhP-17">
          <mxGeometry width="50" height="50" relative="1" as="geometry">
            <mxPoint x="-85" y="1040" as="sourcePoint" />
            <mxPoint x="-55" y="950" as="targetPoint" />
            <Array as="points">
              <mxPoint x="-10" y="1040" />
              <mxPoint x="-10" y="950" />
            </Array>
          </mxGeometry>
        </mxCell>
        <mxCell id="foahgZpSh0EGU_1euFhP-10" value="&lt;font face=&quot;lm roman&quot;&gt;Known sample lookup&lt;br&gt;&lt;/font&gt;" style="rounded=0;whiteSpace=wrap;html=1;" vertex="1" parent="1">
          <mxGeometry x="50" y="1010" width="80" height="60" as="geometry" />
        </mxCell>
        <mxCell id="foahgZpSh0EGU_1euFhP-11" value="&lt;font data-font-src=&quot;https://fonts.cdnfonts.com/css/latin-modern-roman&quot; face=&quot;lm roman&quot;&gt;Shift&lt;/font&gt;" style="rounded=0;whiteSpace=wrap;html=1;" vertex="1" parent="1">
          <mxGeometry x="-120" y="740" width="80" height="40" as="geometry" />
        </mxCell>
        <mxCell id="foahgZpSh0EGU_1euFhP-12" value="&lt;font face=&quot;lm roman&quot;&gt;Multiply&lt;/font&gt;" style="rounded=0;whiteSpace=wrap;html=1;" vertex="1" parent="1">
          <mxGeometry x="120" y="740" width="80" height="40" as="geometry" />
        </mxCell>
        <mxCell id="foahgZpSh0EGU_1euFhP-13" value="&lt;font face=&quot;lm roman&quot;&gt;Summize&lt;/font&gt;" style="rounded=0;whiteSpace=wrap;html=1;" vertex="1" parent="1">
          <mxGeometry x="360" y="740" width="80" height="40" as="geometry" />
        </mxCell>
        <mxCell id="foahgZpSh0EGU_1euFhP-14" value="&lt;font face=&quot;lm roman&quot;&gt;Compare&lt;br&gt;&lt;/font&gt;" style="rounded=0;whiteSpace=wrap;html=1;" vertex="1" parent="1">
          <mxGeometry x="600" y="740" width="80" height="40" as="geometry" />
        </mxCell>
        <mxCell id="foahgZpSh0EGU_1euFhP-15" value="&lt;font face=&quot;lm roman&quot;&gt;idle&lt;br&gt;&lt;/font&gt;" style="rounded=0;whiteSpace=wrap;html=1;" vertex="1" parent="1">
          <mxGeometry x="840" y="740" width="80" height="40" as="geometry" />
        </mxCell>
        <mxCell id="foahgZpSh0EGU_1euFhP-16" value="" style="group" vertex="1" connectable="0" parent="1">
          <mxGeometry x="20" y="880" width="50" height="80" as="geometry" />
        </mxCell>
        <mxCell id="foahgZpSh0EGU_1euFhP-17" value="" style="rounded=0;whiteSpace=wrap;html=1;" vertex="1" parent="foahgZpSh0EGU_1euFhP-16">
          <mxGeometry width="50" height="80" as="geometry" />
        </mxCell>
        <mxCell id="foahgZpSh0EGU_1euFhP-18" value="" style="endArrow=none;html=1;rounded=0;entryX=0.7;entryY=0.998;entryDx=0;entryDy=0;entryPerimeter=0;" edge="1" parent="foahgZpSh0EGU_1euFhP-16" target="foahgZpSh0EGU_1euFhP-17">
          <mxGeometry width="50" height="50" relative="1" as="geometry">
            <mxPoint x="25" y="80" as="sourcePoint" />
            <mxPoint x="40.999999999999886" y="79.68000000000006" as="targetPoint" />
            <Array as="points">
              <mxPoint x="30" y="70" />
            </Array>
          </mxGeometry>
        </mxCell>
        <mxCell id="foahgZpSh0EGU_1euFhP-19" value="$$\text{Sample}$$" style="text;html=1;align=center;verticalAlign=middle;whiteSpace=wrap;rounded=0;" vertex="1" parent="foahgZpSh0EGU_1euFhP-16">
          <mxGeometry y="20" width="50" height="30" as="geometry" />
        </mxCell>
        <mxCell id="foahgZpSh0EGU_1euFhP-20" value="$$\text{Buffer}$$" style="text;html=1;align=center;verticalAlign=middle;whiteSpace=wrap;rounded=0;" vertex="1" parent="foahgZpSh0EGU_1euFhP-16">
          <mxGeometry y="35" width="50" height="30" as="geometry" />
        </mxCell>
        <mxCell id="foahgZpSh0EGU_1euFhP-21" value="" style="group" vertex="1" connectable="0" parent="1">
          <mxGeometry x="-55" y="810" width="80" height="60" as="geometry" />
        </mxCell>
        <mxCell id="foahgZpSh0EGU_1euFhP-22" value="&lt;div&gt;&lt;br&gt;&lt;/div&gt;&lt;div&gt;&lt;br&gt;&lt;/div&gt;&lt;div&gt;&lt;br&gt;&lt;/div&gt;" style="rounded=0;whiteSpace=wrap;html=1;" vertex="1" parent="foahgZpSh0EGU_1euFhP-21">
          <mxGeometry width="80" height="60" as="geometry" />
        </mxCell>
        <mxCell id="foahgZpSh0EGU_1euFhP-23" value="&lt;b&gt;$$\ll$$&lt;/b&gt;" style="text;html=1;align=center;verticalAlign=middle;whiteSpace=wrap;rounded=0;" vertex="1" parent="foahgZpSh0EGU_1euFhP-21">
          <mxGeometry x="10" y="20" width="60" height="30" as="geometry" />
        </mxCell>
        <mxCell id="foahgZpSh0EGU_1euFhP-24" value="$$\text{Shifter}$$" style="text;html=1;align=center;verticalAlign=middle;whiteSpace=wrap;rounded=0;" vertex="1" parent="foahgZpSh0EGU_1euFhP-21">
          <mxGeometry x="18" width="47" height="30" as="geometry" />
        </mxCell>
        <mxCell id="foahgZpSh0EGU_1euFhP-25" style="edgeStyle=orthogonalEdgeStyle;rounded=0;orthogonalLoop=1;jettySize=auto;html=1;entryX=1;entryY=0.5;entryDx=0;entryDy=0;strokeWidth=4;" edge="1" parent="1" source="foahgZpSh0EGU_1euFhP-17" target="foahgZpSh0EGU_1euFhP-22">
          <mxGeometry relative="1" as="geometry">
            <Array as="points">
              <mxPoint x="100" y="920" />
              <mxPoint x="100" y="840" />
            </Array>
          </mxGeometry>
        </mxCell>
        <mxCell id="foahgZpSh0EGU_1euFhP-26" style="edgeStyle=orthogonalEdgeStyle;rounded=0;orthogonalLoop=1;jettySize=auto;html=1;entryX=0;entryY=0;entryDx=0;entryDy=0;strokeWidth=4;" edge="1" parent="1" source="foahgZpSh0EGU_1euFhP-22" target="foahgZpSh0EGU_1euFhP-19">
          <mxGeometry relative="1" as="geometry">
            <Array as="points">
              <mxPoint x="-70" y="840" />
              <mxPoint x="-70" y="900" />
            </Array>
          </mxGeometry>
        </mxCell>
        <mxCell id="foahgZpSh0EGU_1euFhP-27" value="" style="group" vertex="1" connectable="0" parent="1">
          <mxGeometry x="260" y="820" width="57.5" height="80" as="geometry" />
        </mxCell>
        <mxCell id="foahgZpSh0EGU_1euFhP-28" value="" style="rounded=0;whiteSpace=wrap;html=1;" vertex="1" parent="foahgZpSh0EGU_1euFhP-27">
          <mxGeometry width="50" height="80" as="geometry" />
        </mxCell>
        <mxCell id="foahgZpSh0EGU_1euFhP-29" value="" style="endArrow=none;html=1;rounded=0;entryX=0.7;entryY=0.998;entryDx=0;entryDy=0;entryPerimeter=0;" edge="1" parent="foahgZpSh0EGU_1euFhP-27" target="foahgZpSh0EGU_1euFhP-28">
          <mxGeometry width="50" height="50" relative="1" as="geometry">
            <mxPoint x="25" y="80" as="sourcePoint" />
            <mxPoint x="40.999999999999886" y="79.68" as="targetPoint" />
            <Array as="points">
              <mxPoint x="30" y="70" />
            </Array>
          </mxGeometry>
        </mxCell>
        <mxCell id="foahgZpSh0EGU_1euFhP-30" value="$$\text{mult}$$" style="text;html=1;align=center;verticalAlign=middle;whiteSpace=wrap;rounded=0;" vertex="1" parent="foahgZpSh0EGU_1euFhP-27">
          <mxGeometry y="15" width="50" height="30" as="geometry" />
        </mxCell>
        <mxCell id="foahgZpSh0EGU_1euFhP-31" value="$$\text{result}$$" style="text;html=1;align=center;verticalAlign=middle;whiteSpace=wrap;rounded=0;" vertex="1" parent="foahgZpSh0EGU_1euFhP-27">
          <mxGeometry y="30" width="50" height="30" as="geometry" />
        </mxCell>
        <mxCell id="foahgZpSh0EGU_1euFhP-32" value="" style="endArrow=classic;html=1;rounded=0;strokeWidth=4;" edge="1" parent="1">
          <mxGeometry width="50" height="50" relative="1" as="geometry">
            <mxPoint x="70" y="840" as="sourcePoint" />
            <mxPoint x="180" y="840" as="targetPoint" />
          </mxGeometry>
        </mxCell>
        <mxCell id="foahgZpSh0EGU_1euFhP-33" value="" style="group" vertex="1" connectable="0" parent="1">
          <mxGeometry x="180" y="820" width="40" height="80" as="geometry" />
        </mxCell>
        <mxCell id="foahgZpSh0EGU_1euFhP-34" value="" style="endArrow=none;html=1;rounded=0;" edge="1" parent="foahgZpSh0EGU_1euFhP-33">
          <mxGeometry width="50" height="50" relative="1" as="geometry">
            <mxPoint x="40" y="40" as="sourcePoint" />
            <mxPoint x="20" y="40" as="targetPoint" />
            <Array as="points">
              <mxPoint x="40" y="60" />
              <mxPoint y="80" />
              <mxPoint y="50" />
            </Array>
          </mxGeometry>
        </mxCell>
        <mxCell id="foahgZpSh0EGU_1euFhP-35" value="&lt;span style=&quot;&quot;&gt;$$A$$&lt;/span&gt;" style="edgeLabel;html=1;align=center;verticalAlign=middle;resizable=0;points=[];rotation=-90;labelBackgroundColor=none;" vertex="1" connectable="0" parent="foahgZpSh0EGU_1euFhP-33">
          <mxGeometry x="10" y="60.002380952380975" as="geometry">
            <mxPoint as="offset" />
          </mxGeometry>
        </mxCell>
        <mxCell id="foahgZpSh0EGU_1euFhP-36" value="$$B$$" style="edgeLabel;html=1;align=center;verticalAlign=middle;resizable=0;points=[];rotation=-90;labelBackgroundColor=none;" vertex="1" connectable="0" parent="foahgZpSh0EGU_1euFhP-33">
          <mxGeometry x="10" y="20.002380952380975" as="geometry">
            <mxPoint x="-6.123233995736766e-17" y="-1" as="offset" />
          </mxGeometry>
        </mxCell>
        <mxCell id="foahgZpSh0EGU_1euFhP-37" value="" style="endArrow=none;html=1;rounded=0;" edge="1" parent="foahgZpSh0EGU_1euFhP-33">
          <mxGeometry width="50" height="50" relative="1" as="geometry">
            <mxPoint x="40" y="40" as="sourcePoint" />
            <mxPoint x="20" y="40" as="targetPoint" />
            <Array as="points">
              <mxPoint x="40" y="20" />
              <mxPoint />
              <mxPoint y="30" />
            </Array>
          </mxGeometry>
        </mxCell>
        <mxCell id="foahgZpSh0EGU_1euFhP-38" value="&lt;span style=&quot;&quot;&gt;$$A\cdot B $$&lt;/span&gt;" style="edgeLabel;html=1;align=center;verticalAlign=middle;resizable=0;points=[];rotation=-90;labelBackgroundColor=none;" vertex="1" connectable="0" parent="foahgZpSh0EGU_1euFhP-37">
          <mxGeometry x="-0.8463" y="2" relative="1" as="geometry">
            <mxPoint x="-8" y="9" as="offset" />
          </mxGeometry>
        </mxCell>
        <mxCell id="foahgZpSh0EGU_1euFhP-39" style="edgeStyle=orthogonalEdgeStyle;rounded=0;orthogonalLoop=1;jettySize=auto;html=1;strokeWidth=2;" edge="1" parent="1" source="foahgZpSh0EGU_1euFhP-40">
          <mxGeometry relative="1" as="geometry">
            <mxPoint x="720" y="860" as="targetPoint" />
            <Array as="points">
              <mxPoint x="720" y="860" />
            </Array>
          </mxGeometry>
        </mxCell>
        <mxCell id="foahgZpSh0EGU_1euFhP-40" value="&lt;div&gt;$$\text{Summation}$$&lt;/div&gt;&lt;div&gt;&lt;br&gt;&lt;/div&gt;&lt;div&gt;&lt;br&gt;&lt;/div&gt;&lt;div&gt;&lt;br&gt;&lt;/div&gt;" style="rounded=0;whiteSpace=wrap;html=1;" vertex="1" parent="1">
          <mxGeometry x="410" y="820" width="80" height="80" as="geometry" />
        </mxCell>
        <mxCell id="foahgZpSh0EGU_1euFhP-41" value="$$\sum$$" style="text;html=1;align=center;verticalAlign=middle;whiteSpace=wrap;rounded=0;" vertex="1" parent="1">
          <mxGeometry x="420" y="860" width="60" height="30" as="geometry" />
        </mxCell>
        <mxCell id="foahgZpSh0EGU_1euFhP-42" value="" style="endArrow=classic;html=1;rounded=0;strokeWidth=4;" edge="1" parent="1" target="foahgZpSh0EGU_1euFhP-28">
          <mxGeometry width="50" height="50" relative="1" as="geometry">
            <mxPoint x="220" y="860" as="sourcePoint" />
            <mxPoint x="190" y="820" as="targetPoint" />
          </mxGeometry>
        </mxCell>
        <mxCell id="foahgZpSh0EGU_1euFhP-43" value="" style="endArrow=none;dashed=1;html=1;rounded=0;" edge="1" parent="1">
          <mxGeometry width="50" height="50" relative="1" as="geometry">
            <mxPoint x="110" y="810" as="sourcePoint" />
            <mxPoint x="110" y="670" as="targetPoint" />
          </mxGeometry>
        </mxCell>
        <mxCell id="foahgZpSh0EGU_1euFhP-44" value="" style="endArrow=none;dashed=1;html=1;rounded=0;" edge="1" parent="1">
          <mxGeometry width="50" height="50" relative="1" as="geometry">
            <mxPoint x="350" y="830" as="sourcePoint" />
            <mxPoint x="350" y="670" as="targetPoint" />
          </mxGeometry>
        </mxCell>
        <mxCell id="foahgZpSh0EGU_1euFhP-45" value="" style="endArrow=none;dashed=1;html=1;rounded=0;" edge="1" parent="1" source="foahgZpSh0EGU_1euFhP-63">
          <mxGeometry width="50" height="50" relative="1" as="geometry">
            <mxPoint x="590" y="990" as="sourcePoint" />
            <mxPoint x="590" y="670" as="targetPoint" />
          </mxGeometry>
        </mxCell>
        <mxCell id="foahgZpSh0EGU_1euFhP-46" value="" style="endArrow=none;dashed=1;html=1;rounded=0;" edge="1" parent="1">
          <mxGeometry width="50" height="50" relative="1" as="geometry">
            <mxPoint x="830" y="990" as="sourcePoint" />
            <mxPoint x="830" y="670" as="targetPoint" />
          </mxGeometry>
        </mxCell>
        <mxCell id="foahgZpSh0EGU_1euFhP-47" value="" style="endArrow=classic;html=1;rounded=0;strokeWidth=4;exitX=1;exitY=0.5;exitDx=0;exitDy=0;" edge="1" parent="1" source="foahgZpSh0EGU_1euFhP-10">
          <mxGeometry width="50" height="50" relative="1" as="geometry">
            <mxPoint x="140" y="1060" as="sourcePoint" />
            <mxPoint x="180" y="880" as="targetPoint" />
            <Array as="points">
              <mxPoint x="150" y="1040" />
              <mxPoint x="150" y="880" />
            </Array>
          </mxGeometry>
        </mxCell>
        <mxCell id="foahgZpSh0EGU_1euFhP-48" style="edgeStyle=orthogonalEdgeStyle;rounded=0;orthogonalLoop=1;jettySize=auto;html=1;entryX=0;entryY=0.5;entryDx=0;entryDy=0;strokeWidth=4;" edge="1" parent="1" source="foahgZpSh0EGU_1euFhP-28" target="foahgZpSh0EGU_1euFhP-40">
          <mxGeometry relative="1" as="geometry" />
        </mxCell>
        <mxCell id="foahgZpSh0EGU_1euFhP-49" value="$$\text{Sample counter}$$" style="text;html=1;align=center;verticalAlign=middle;whiteSpace=wrap;rounded=0;" vertex="1" parent="1">
          <mxGeometry x="440" y="1020" width="110" height="20" as="geometry" />
        </mxCell>
        <mxCell id="foahgZpSh0EGU_1euFhP-50" value="time" style="rounded=0;whiteSpace=wrap;html=1;" vertex="1" parent="1">
          <mxGeometry x="705" y="960" width="80" height="35" as="geometry" />
        </mxCell>
        <mxCell id="foahgZpSh0EGU_1euFhP-51" value="" style="endArrow=classic;html=1;rounded=0;exitX=1;exitY=0.5;exitDx=0;exitDy=0;entryX=0;entryY=0.571;entryDx=0;entryDy=0;entryPerimeter=0;endFill=1;strokeWidth=3;" edge="1" parent="1" source="foahgZpSh0EGU_1euFhP-49" target="foahgZpSh0EGU_1euFhP-50">
          <mxGeometry width="50" height="50" relative="1" as="geometry">
            <mxPoint x="520" y="950" as="sourcePoint" />
            <mxPoint x="610" y="950" as="targetPoint" />
            <Array as="points">
              <mxPoint x="640" y="1030" />
              <mxPoint x="640" y="980" />
            </Array>
          </mxGeometry>
        </mxCell>
        <mxCell id="foahgZpSh0EGU_1euFhP-52" value="" style="group" vertex="1" connectable="0" parent="1">
          <mxGeometry x="725" y="840" width="40" height="80" as="geometry" />
        </mxCell>
        <mxCell id="foahgZpSh0EGU_1euFhP-53" value="" style="endArrow=none;html=1;rounded=0;" edge="1" parent="foahgZpSh0EGU_1euFhP-52">
          <mxGeometry width="50" height="50" relative="1" as="geometry">
            <mxPoint x="35" y="40" as="sourcePoint" />
            <mxPoint x="15" y="40" as="targetPoint" />
            <Array as="points">
              <mxPoint x="35" y="20" />
              <mxPoint x="-5" />
              <mxPoint x="-5" y="30" />
            </Array>
          </mxGeometry>
        </mxCell>
        <mxCell id="foahgZpSh0EGU_1euFhP-54" value="A&amp;lt;B" style="edgeLabel;html=1;align=center;verticalAlign=middle;resizable=0;points=[];rotation=-90;" vertex="1" connectable="0" parent="foahgZpSh0EGU_1euFhP-53">
          <mxGeometry x="-0.8463" y="2" relative="1" as="geometry">
            <mxPoint x="-8" y="9" as="offset" />
          </mxGeometry>
        </mxCell>
        <mxCell id="foahgZpSh0EGU_1euFhP-55" value="" style="endArrow=none;html=1;rounded=0;" edge="1" parent="foahgZpSh0EGU_1euFhP-52">
          <mxGeometry width="50" height="50" relative="1" as="geometry">
            <mxPoint x="35" y="40" as="sourcePoint" />
            <mxPoint x="15" y="40" as="targetPoint" />
            <Array as="points">
              <mxPoint x="35" y="60" />
              <mxPoint x="-5" y="80" />
              <mxPoint x="-5" y="50" />
            </Array>
          </mxGeometry>
        </mxCell>
        <mxCell id="foahgZpSh0EGU_1euFhP-56" value="A" style="edgeLabel;html=1;align=center;verticalAlign=middle;resizable=0;points=[];rotation=-90;" vertex="1" connectable="0" parent="foahgZpSh0EGU_1euFhP-52">
          <mxGeometry x="5" y="60.002380952380975" as="geometry" />
        </mxCell>
        <mxCell id="foahgZpSh0EGU_1euFhP-57" value="B" style="edgeLabel;html=1;align=center;verticalAlign=middle;resizable=0;points=[];rotation=-90;" vertex="1" connectable="0" parent="foahgZpSh0EGU_1euFhP-52">
          <mxGeometry x="5" y="20.002380952380975" as="geometry">
            <mxPoint x="-6.123233995736766e-17" y="-1" as="offset" />
          </mxGeometry>
        </mxCell>
        <mxCell id="foahgZpSh0EGU_1euFhP-58" value="" style="group" vertex="1" connectable="0" parent="1">
          <mxGeometry x="570" y="810" width="100" height="40.5" as="geometry" />
        </mxCell>
        <mxCell id="foahgZpSh0EGU_1euFhP-59" style="edgeStyle=orthogonalEdgeStyle;rounded=0;orthogonalLoop=1;jettySize=auto;html=1;strokeWidth=2;" edge="1" parent="foahgZpSh0EGU_1euFhP-58" source="foahgZpSh0EGU_1euFhP-61">
          <mxGeometry relative="1" as="geometry">
            <mxPoint x="150" y="90" as="targetPoint" />
          </mxGeometry>
        </mxCell>
        <mxCell id="foahgZpSh0EGU_1euFhP-60" value="" style="group" vertex="1" connectable="0" parent="foahgZpSh0EGU_1euFhP-58">
          <mxGeometry x="40" y="70" width="80" height="40.5" as="geometry" />
        </mxCell>
        <mxCell id="foahgZpSh0EGU_1euFhP-61" value="&lt;div&gt;Max score&lt;/div&gt;" style="rounded=0;whiteSpace=wrap;html=1;" vertex="1" parent="foahgZpSh0EGU_1euFhP-60">
          <mxGeometry width="80" height="40" as="geometry" />
        </mxCell>
        <mxCell id="foahgZpSh0EGU_1euFhP-62" value="" style="triangle;whiteSpace=wrap;html=1;rotation=-90;" vertex="1" parent="foahgZpSh0EGU_1euFhP-60">
          <mxGeometry x="65" y="27" width="10" height="15" as="geometry" />
        </mxCell>
        <mxCell id="foahgZpSh0EGU_1euFhP-63" value="$$\lceil \log_2(i )\rceil+\text{2sample_size}$$" style="text;html=1;align=center;verticalAlign=middle;whiteSpace=wrap;rounded=0;" vertex="1" parent="foahgZpSh0EGU_1euFhP-58">
          <mxGeometry x="-60" y="20.5" width="160" height="20" as="geometry" />
        </mxCell>
        <mxCell id="foahgZpSh0EGU_1euFhP-64" value="" style="endArrow=classic;html=1;rounded=0;strokeWidth=2;" edge="1" parent="1">
          <mxGeometry width="50" height="50" relative="1" as="geometry">
            <mxPoint x="760" y="880" as="sourcePoint" />
            <mxPoint x="680" y="920" as="targetPoint" />
            <Array as="points">
              <mxPoint x="775" y="880" />
              <mxPoint x="775" y="940" />
              <mxPoint x="680" y="940" />
            </Array>
          </mxGeometry>
        </mxCell>
        <mxCell id="foahgZpSh0EGU_1euFhP-65" value="" style="triangle;whiteSpace=wrap;html=1;rotation=90;" vertex="1" parent="1">
          <mxGeometry x="770" y="957.5" width="10" height="15" as="geometry" />
        </mxCell>
        <mxCell id="foahgZpSh0EGU_1euFhP-66" value="" style="endArrow=classic;html=1;rounded=0;entryX=0;entryY=0.5;entryDx=0;entryDy=0;strokeWidth=2;" edge="1" parent="1">
          <mxGeometry width="50" height="50" relative="1" as="geometry">
            <mxPoint x="775" y="940" as="sourcePoint" />
            <mxPoint x="775" y="959.5" as="targetPoint" />
          </mxGeometry>
        </mxCell>
        <mxCell id="foahgZpSh0EGU_1euFhP-67" value="" style="endArrow=classic;html=1;rounded=0;entryX=0;entryY=0.5;entryDx=0;entryDy=0;endFill=1;strokeWidth=3;" edge="1" parent="1" target="foahgZpSh0EGU_1euFhP-92">
          <mxGeometry width="50" height="50" relative="1" as="geometry">
            <mxPoint x="785" y="980" as="sourcePoint" />
            <mxPoint x="1125" y="910" as="targetPoint" />
            <Array as="points">
              <mxPoint x="805" y="980" />
              <mxPoint x="805" y="1010" />
              <mxPoint x="1130" y="1010" />
              <mxPoint x="1130" y="930" />
            </Array>
          </mxGeometry>
        </mxCell>
        <mxCell id="foahgZpSh0EGU_1euFhP-69" value="&lt;font face=&quot;lm roman&quot;&gt;stopped&lt;/font&gt;" style="rounded=0;whiteSpace=wrap;html=1;" vertex="1" parent="1">
          <mxGeometry x="1090" y="740" width="80" height="40" as="geometry" />
        </mxCell>
        <mxCell id="foahgZpSh0EGU_1euFhP-70" value="" style="endArrow=none;dashed=1;html=1;rounded=0;" edge="1" parent="1">
          <mxGeometry width="50" height="50" relative="1" as="geometry">
            <mxPoint x="1080" y="990.25" as="sourcePoint" />
            <mxPoint x="1080" y="670" as="targetPoint" />
          </mxGeometry>
        </mxCell>
        <mxCell id="foahgZpSh0EGU_1euFhP-71" value="&lt;font face=&quot;lm roman&quot; data-font-src=&quot;https://fonts.cdnfonts.com/css/latin-modern-roman&quot;&gt;next state→&lt;br&gt;&lt;/font&gt;&lt;div&gt;&lt;font face=&quot;lm roman&quot; data-font-src=&quot;https://fonts.cdnfonts.com/css/latin-modern-roman&quot;&gt;stopped&lt;/font&gt;&lt;/div&gt;" style="rounded=0;whiteSpace=wrap;html=1;" vertex="1" parent="1">
          <mxGeometry x="980" y="810.5" width="90" height="40" as="geometry" />
        </mxCell>
        <mxCell id="foahgZpSh0EGU_1euFhP-72" value="" style="endArrow=classic;html=1;rounded=0;strokeWidth=3;" edge="1" parent="1">
          <mxGeometry width="50" height="50" relative="1" as="geometry">
            <mxPoint x="640" y="1030" as="sourcePoint" />
            <mxPoint x="890" y="810" as="targetPoint" />
            <Array as="points">
              <mxPoint x="850" y="1030" />
              <mxPoint x="850" y="810" />
            </Array>
          </mxGeometry>
        </mxCell>
        <mxCell id="foahgZpSh0EGU_1euFhP-73" value="&lt;div&gt;$$\text{Number of samples to run}$$&lt;/div&gt;" style="text;html=1;align=center;verticalAlign=middle;whiteSpace=wrap;rounded=0;" vertex="1" parent="1">
          <mxGeometry x="600" y="1050" width="170" height="20" as="geometry" />
        </mxCell>
        <mxCell id="foahgZpSh0EGU_1euFhP-74" value="" style="endArrow=classic;html=1;rounded=0;exitX=1;exitY=0.5;exitDx=0;exitDy=0;strokeWidth=3;" edge="1" parent="1" source="foahgZpSh0EGU_1euFhP-73">
          <mxGeometry width="50" height="50" relative="1" as="geometry">
            <mxPoint x="880" y="1020" as="sourcePoint" />
            <mxPoint x="890" y="850" as="targetPoint" />
            <Array as="points">
              <mxPoint x="870" y="1060" />
              <mxPoint x="870" y="850" />
            </Array>
          </mxGeometry>
        </mxCell>
        <mxCell id="foahgZpSh0EGU_1euFhP-75" value="" style="endArrow=classic;html=1;rounded=0;entryX=0;entryY=0.5;entryDx=0;entryDy=0;" edge="1" parent="1" target="foahgZpSh0EGU_1euFhP-71">
          <mxGeometry width="50" height="50" relative="1" as="geometry">
            <mxPoint x="930" y="830" as="sourcePoint" />
            <mxPoint x="1070" y="920" as="targetPoint" />
          </mxGeometry>
        </mxCell>
        <mxCell id="foahgZpSh0EGU_1euFhP-76" value="&lt;div&gt;&lt;font face=&quot;lm roman&quot; data-font-src=&quot;https://fonts.cdnfonts.com/css/latin-modern-roman&quot;&gt;next state→&lt;/font&gt;&lt;/div&gt;&lt;div&gt;&lt;font face=&quot;lm roman&quot; data-font-src=&quot;https://fonts.cdnfonts.com/css/latin-modern-roman&quot;&gt;Shift&lt;/font&gt;&lt;/div&gt;" style="rounded=0;whiteSpace=wrap;html=1;" vertex="1" parent="1">
          <mxGeometry x="980" y="935" width="90" height="40" as="geometry" />
        </mxCell>
        <mxCell id="foahgZpSh0EGU_1euFhP-77" value="" style="endArrow=none;html=1;rounded=0;exitX=0;exitY=0.25;exitDx=0;exitDy=0;exitPerimeter=0;" edge="1" parent="1" source="foahgZpSh0EGU_1euFhP-81">
          <mxGeometry width="50" height="50" relative="1" as="geometry">
            <mxPoint x="950" y="853" as="sourcePoint" />
            <mxPoint x="950" y="830" as="targetPoint" />
            <Array as="points">
              <mxPoint x="890" y="900" />
              <mxPoint x="950" y="900" />
            </Array>
          </mxGeometry>
        </mxCell>
        <mxCell id="foahgZpSh0EGU_1euFhP-78" style="edgeStyle=orthogonalEdgeStyle;rounded=0;orthogonalLoop=1;jettySize=auto;html=1;entryX=0;entryY=0.75;entryDx=0;entryDy=0;entryPerimeter=0;endArrow=none;endFill=0;" edge="1" parent="1" source="foahgZpSh0EGU_1euFhP-79" target="foahgZpSh0EGU_1euFhP-81">
          <mxGeometry relative="1" as="geometry">
            <mxPoint x="890" y="960" as="targetPoint" />
            <Array as="points">
              <mxPoint x="890" y="1090" />
            </Array>
          </mxGeometry>
        </mxCell>
        <mxCell id="foahgZpSh0EGU_1euFhP-79" value="&lt;div&gt;$$\text{Sample ready to be processed}$$&lt;/div&gt;" style="text;html=1;align=center;verticalAlign=middle;whiteSpace=wrap;rounded=0;" vertex="1" parent="1">
          <mxGeometry x="590" y="1080" width="200" height="20" as="geometry" />
        </mxCell>
        <mxCell id="foahgZpSh0EGU_1euFhP-80" value="" style="group" vertex="1" connectable="0" parent="1">
          <mxGeometry x="890" y="930" width="83.33" height="50" as="geometry" />
        </mxCell>
        <mxCell id="foahgZpSh0EGU_1euFhP-81" value="" style="verticalLabelPosition=bottom;shadow=0;dashed=0;align=center;html=1;verticalAlign=top;shape=mxgraph.electrical.logic_gates.logic_gate;operation=and;" vertex="1" parent="foahgZpSh0EGU_1euFhP-80">
          <mxGeometry width="83.33" height="50" as="geometry" />
        </mxCell>
        <mxCell id="foahgZpSh0EGU_1euFhP-82" value="" style="verticalLabelPosition=bottom;shadow=0;dashed=0;align=center;html=1;verticalAlign=top;shape=mxgraph.electrical.logic_gates.inverting_contact;" vertex="1" parent="foahgZpSh0EGU_1euFhP-80">
          <mxGeometry x="9.1663" y="8.333333333333334" width="8.332999999999998" height="8.333333333333334" as="geometry" />
        </mxCell>
        <mxCell id="foahgZpSh0EGU_1euFhP-83" value="" style="endArrow=classic;html=1;rounded=0;exitX=1;exitY=0.5;exitDx=0;exitDy=0;exitPerimeter=0;entryX=0;entryY=0.5;entryDx=0;entryDy=0;" edge="1" parent="1" source="foahgZpSh0EGU_1euFhP-81" target="foahgZpSh0EGU_1euFhP-76">
          <mxGeometry width="50" height="50" relative="1" as="geometry">
            <mxPoint x="950" y="950" as="sourcePoint" />
            <mxPoint x="1000" y="900" as="targetPoint" />
          </mxGeometry>
        </mxCell>
        <mxCell id="foahgZpSh0EGU_1euFhP-84" value="&lt;font data-font-src=&quot;https://fonts.cdnfonts.com/css/latin-modern-roman&quot; face=&quot;lm roman&quot;&gt;Shifting the sample buffer, and inserting the ADC sample in the first position&lt;/font&gt;" style="text;html=1;align=center;verticalAlign=middle;whiteSpace=wrap;rounded=0;" vertex="1" parent="1">
          <mxGeometry x="-120" y="670" width="220" height="70" as="geometry" />
        </mxCell>
        <mxCell id="foahgZpSh0EGU_1euFhP-85" value="&lt;font face=&quot;lm roman&quot;&gt;Multiplying the sample buffer with the known sample values and storing the result in a temporary array&lt;br&gt;&lt;/font&gt;" style="text;html=1;align=center;verticalAlign=middle;whiteSpace=wrap;rounded=0;" vertex="1" parent="1">
          <mxGeometry x="120" y="670" width="220" height="70" as="geometry" />
        </mxCell>
        <mxCell id="foahgZpSh0EGU_1euFhP-86" value="" style="endArrow=none;dashed=1;html=1;rounded=0;" edge="1" parent="1">
          <mxGeometry width="50" height="50" relative="1" as="geometry">
            <mxPoint x="-130" y="990" as="sourcePoint" />
            <mxPoint x="-130" y="670" as="targetPoint" />
          </mxGeometry>
        </mxCell>
        <mxCell id="foahgZpSh0EGU_1euFhP-87" value="&lt;font face=&quot;lm roman&quot;&gt;Summerizing every index in the resulting register&lt;br&gt;&lt;/font&gt;" style="text;html=1;align=center;verticalAlign=middle;whiteSpace=wrap;rounded=0;" vertex="1" parent="1">
          <mxGeometry x="360" y="670" width="220" height="70" as="geometry" />
        </mxCell>
        <mxCell id="foahgZpSh0EGU_1euFhP-88" value="&lt;font face=&quot;lm roman&quot;&gt;Comparing the most resent result and saving the time if its exceeds the previous maximum&lt;br&gt;&lt;/font&gt;" style="text;html=1;align=center;verticalAlign=middle;whiteSpace=wrap;rounded=0;" vertex="1" parent="1">
          <mxGeometry x="600" y="670" width="220" height="70" as="geometry" />
        </mxCell>
        <mxCell id="foahgZpSh0EGU_1euFhP-89" value="&lt;font face=&quot;lm roman&quot;&gt;Idleing until the next sample is ready or the number or the time the mechanism should run is reached&lt;br&gt;&lt;/font&gt;" style="text;html=1;align=center;verticalAlign=middle;whiteSpace=wrap;rounded=0;" vertex="1" parent="1">
          <mxGeometry x="850" y="670" width="220" height="70" as="geometry" />
        </mxCell>
        <mxCell id="foahgZpSh0EGU_1euFhP-90" value="&lt;font face=&quot;lm roman&quot;&gt;The number of samples wanted has been run&lt;/font&gt; waiting for a new start signal" style="text;html=1;align=center;verticalAlign=middle;whiteSpace=wrap;rounded=0;" vertex="1" parent="1">
          <mxGeometry x="1090" y="670" width="220" height="70" as="geometry" />
        </mxCell>
        <mxCell id="foahgZpSh0EGU_1euFhP-91" style="edgeStyle=orthogonalEdgeStyle;rounded=0;orthogonalLoop=1;jettySize=auto;html=1;strokeWidth=3;" edge="1" parent="1" source="foahgZpSh0EGU_1euFhP-92">
          <mxGeometry relative="1" as="geometry">
            <mxPoint x="1340" y="930" as="targetPoint" />
          </mxGeometry>
        </mxCell>
        <mxCell id="foahgZpSh0EGU_1euFhP-92" value="&lt;font face=&quot;lm roman&quot;&gt;Time of flight&lt;br&gt;&lt;/font&gt;" style="rounded=0;whiteSpace=wrap;html=1;" vertex="1" parent="1">
          <mxGeometry x="1150" y="912.5" width="80" height="35" as="geometry" />
        </mxCell>
        <mxCell id="foahgZpSh0EGU_1euFhP-93" value="" style="triangle;whiteSpace=wrap;html=1;rotation=90;" vertex="1" parent="1">
          <mxGeometry x="1215" y="910" width="10" height="15" as="geometry" />
        </mxCell>
        <mxCell id="foahgZpSh0EGU_1euFhP-94" style="edgeStyle=orthogonalEdgeStyle;rounded=0;orthogonalLoop=1;jettySize=auto;html=1;exitX=1;exitY=0.5;exitDx=0;exitDy=0;" edge="1" parent="1" source="foahgZpSh0EGU_1euFhP-98">
          <mxGeometry relative="1" as="geometry">
            <mxPoint x="1280" y="863" as="sourcePoint" />
            <Array as="points">
              <mxPoint x="1300" y="860" />
              <mxPoint x="1300" y="860" />
            </Array>
            <mxPoint x="1340" y="860" as="targetPoint" />
          </mxGeometry>
        </mxCell>
        <mxCell id="foahgZpSh0EGU_1euFhP-96" value="" style="endArrow=none;dashed=1;html=1;rounded=0;" edge="1" parent="1">
          <mxGeometry width="50" height="50" relative="1" as="geometry">
            <mxPoint x="1320" y="990.12" as="sourcePoint" />
            <mxPoint x="1320" y="669.87" as="targetPoint" />
          </mxGeometry>
        </mxCell>
        <mxCell id="foahgZpSh0EGU_1euFhP-97" value="$$&#39;0&#39; \Rightarrow\text{TOF ready flag}$$" style="text;html=1;align=center;verticalAlign=middle;whiteSpace=wrap;rounded=0;" vertex="1" parent="1">
          <mxGeometry x="-120" y="780" width="160" height="30" as="geometry" />
        </mxCell>
        <mxCell id="foahgZpSh0EGU_1euFhP-98" value="$$&#39;1&#39; \Rightarrow\text{TOF ready flag}$$" style="text;html=1;align=center;verticalAlign=middle;whiteSpace=wrap;rounded=0;" vertex="1" parent="1">
          <mxGeometry x="1120" y="850" width="140" height="20" as="geometry" />
        </mxCell>
        <mxCell id="foahgZpSh0EGU_1euFhP-99" value="" style="endArrow=none;html=1;rounded=0;" edge="1" parent="1">
          <mxGeometry width="50" height="50" relative="1" as="geometry">
            <mxPoint x="85" y="850.5" as="sourcePoint" />
            <mxPoint x="95" y="830.5" as="targetPoint" />
          </mxGeometry>
        </mxCell>
        <mxCell id="foahgZpSh0EGU_1euFhP-100" value="" style="endArrow=none;dashed=1;html=1;rounded=0;" edge="1" parent="1">
          <mxGeometry width="50" height="50" relative="1" as="geometry">
            <mxPoint x="110" y="990" as="sourcePoint" />
            <mxPoint x="110" y="830.5" as="targetPoint" />
          </mxGeometry>
        </mxCell>
        <mxCell id="foahgZpSh0EGU_1euFhP-101" value="$$\text{sample_size}$$" style="text;html=1;align=center;verticalAlign=middle;whiteSpace=wrap;rounded=0;labelBackgroundColor=none;" vertex="1" parent="1">
          <mxGeometry x="-100" y="975" width="80" height="20" as="geometry" />
        </mxCell>
        <mxCell id="foahgZpSh0EGU_1euFhP-102" value="" style="endArrow=none;html=1;rounded=0;" edge="1" parent="1">
          <mxGeometry width="50" height="50" relative="1" as="geometry">
            <mxPoint x="-20" y="980" as="sourcePoint" />
            <mxPoint y="990" as="targetPoint" />
          </mxGeometry>
        </mxCell>
        <mxCell id="foahgZpSh0EGU_1euFhP-103" value="$$i \cdot\text{2sample_size}$$" style="text;html=1;align=center;verticalAlign=middle;whiteSpace=wrap;rounded=0;labelBackgroundColor=none;" vertex="1" parent="1">
          <mxGeometry x="317.5" y="830.5" width="82.5" height="20" as="geometry" />
        </mxCell>
        <mxCell id="foahgZpSh0EGU_1euFhP-104" value="" style="endArrow=none;dashed=1;html=1;rounded=0;" edge="1" parent="1">
          <mxGeometry width="50" height="50" relative="1" as="geometry">
            <mxPoint x="350" y="990" as="sourcePoint" />
            <mxPoint x="350" y="850.5" as="targetPoint" />
          </mxGeometry>
        </mxCell>
        <mxCell id="foahgZpSh0EGU_1euFhP-105" value="" style="endArrow=none;html=1;rounded=0;" edge="1" parent="1">
          <mxGeometry width="50" height="50" relative="1" as="geometry">
            <mxPoint x="350" y="870" as="sourcePoint" />
            <mxPoint x="360" y="850" as="targetPoint" />
          </mxGeometry>
        </mxCell>
        <mxCell id="foahgZpSh0EGU_1euFhP-106" value="" style="endArrow=none;dashed=1;html=1;rounded=0;" edge="1" parent="1">
          <mxGeometry width="50" height="50" relative="1" as="geometry">
            <mxPoint x="590" y="990" as="sourcePoint" />
            <mxPoint x="590" y="870" as="targetPoint" />
          </mxGeometry>
        </mxCell>
        <mxCell id="foahgZpSh0EGU_1euFhP-107" value="" style="endArrow=none;html=1;rounded=0;" edge="1" parent="1">
          <mxGeometry width="50" height="50" relative="1" as="geometry">
            <mxPoint x="585" y="870" as="sourcePoint" />
            <mxPoint x="595" y="850" as="targetPoint" />
          </mxGeometry>
        </mxCell>
        <mxCell id="foahgZpSh0EGU_1euFhP-108" value="$$\text{counter_size}$$" style="text;html=1;align=center;verticalAlign=middle;whiteSpace=wrap;rounded=0;" vertex="1" parent="1">
          <mxGeometry x="550" y="1010" width="90" height="10" as="geometry" />
        </mxCell>
        <mxCell id="foahgZpSh0EGU_1euFhP-109" value="$$\text{counter_size}$$" style="text;html=1;align=center;verticalAlign=middle;whiteSpace=wrap;rounded=0;" vertex="1" parent="1">
          <mxGeometry x="960" y="995" width="90" as="geometry" />
        </mxCell>
        <mxCell id="foahgZpSh0EGU_1euFhP-110" value="" style="endArrow=none;html=1;rounded=0;" edge="1" parent="1">
          <mxGeometry width="50" height="50" relative="1" as="geometry">
            <mxPoint x="590" y="1040" as="sourcePoint" />
            <mxPoint x="600" y="1020" as="targetPoint" />
          </mxGeometry>
        </mxCell>
        <mxCell id="foahgZpSh0EGU_1euFhP-111" value="$$\text{counter_size}$$" style="text;html=1;align=center;verticalAlign=middle;whiteSpace=wrap;rounded=0;" vertex="1" parent="1">
          <mxGeometry x="760" y="1040" width="90" height="10" as="geometry" />
        </mxCell>
        <mxCell id="foahgZpSh0EGU_1euFhP-112" value="" style="endArrow=none;html=1;rounded=0;" edge="1" parent="1">
          <mxGeometry width="50" height="50" relative="1" as="geometry">
            <mxPoint x="800" y="1070" as="sourcePoint" />
            <mxPoint x="810" y="1050" as="targetPoint" />
          </mxGeometry>
        </mxCell>
        <mxCell id="foahgZpSh0EGU_1euFhP-113" value="" style="endArrow=none;html=1;rounded=0;" edge="1" parent="1">
          <mxGeometry width="50" height="50" relative="1" as="geometry">
            <mxPoint x="1000" y="1020" as="sourcePoint" />
            <mxPoint x="1010" y="1000" as="targetPoint" />
          </mxGeometry>
        </mxCell>
        <mxCell id="foahgZpSh0EGU_1euFhP-114" value="$$\text{counter_size}$$" style="text;html=1;align=center;verticalAlign=middle;whiteSpace=wrap;rounded=0;" vertex="1" parent="1">
          <mxGeometry x="1230" y="915" width="90" as="geometry" />
        </mxCell>
        <mxCell id="foahgZpSh0EGU_1euFhP-115" value="" style="endArrow=none;html=1;rounded=0;" edge="1" parent="1">
          <mxGeometry width="50" height="50" relative="1" as="geometry">
            <mxPoint x="1270" y="940" as="sourcePoint" />
            <mxPoint x="1280" y="920" as="targetPoint" />
          </mxGeometry>
        </mxCell>
        <mxCell id="foahgZpSh0EGU_1euFhP-116" value="$$i\cdot\text{sample_size}$$" style="text;html=1;align=center;verticalAlign=middle;whiteSpace=wrap;rounded=0;labelBackgroundColor=none;" vertex="1" parent="1">
          <mxGeometry x="165" y="970" width="80" height="10" as="geometry" />
        </mxCell>
        <mxCell id="foahgZpSh0EGU_1euFhP-117" value="" style="endArrow=none;html=1;rounded=0;" edge="1" parent="1">
          <mxGeometry width="50" height="50" relative="1" as="geometry">
            <mxPoint x="140" y="970" as="sourcePoint" />
            <mxPoint x="160" y="980" as="targetPoint" />
          </mxGeometry>
        </mxCell>
        <mxCell id="foahgZpSh0EGU_1euFhP-118" value="&lt;font face=&quot;lm roman&quot; data-font-src=&quot;https://fonts.cdnfonts.com/css/latin-modern-roman&quot;&gt;next state→&lt;br&gt;&lt;/font&gt;&lt;div&gt;&lt;font face=&quot;lm roman&quot; data-font-src=&quot;https://fonts.cdnfonts.com/css/latin-modern-roman&quot;&gt;shift&lt;/font&gt;&lt;/div&gt;" style="rounded=0;whiteSpace=wrap;html=1;" vertex="1" parent="1">
          <mxGeometry x="1220" y="790" width="90" height="40" as="geometry" />
        </mxCell>
        <mxCell id="foahgZpSh0EGU_1euFhP-119" style="edgeStyle=orthogonalEdgeStyle;rounded=0;orthogonalLoop=1;jettySize=auto;html=1;entryX=0;entryY=0.5;entryDx=0;entryDy=0;" edge="1" parent="1" source="foahgZpSh0EGU_1euFhP-120" target="foahgZpSh0EGU_1euFhP-118">
          <mxGeometry relative="1" as="geometry">
            <Array as="points">
              <mxPoint x="1110" y="1060" />
              <mxPoint x="1110" y="810" />
            </Array>
          </mxGeometry>
        </mxCell>
        <mxCell id="foahgZpSh0EGU_1euFhP-120" value="$$\text{Start_TOF_calcuation}$$" style="text;html=1;align=center;verticalAlign=middle;whiteSpace=wrap;rounded=0;" vertex="1" parent="1">
          <mxGeometry x="952.5" y="1040" width="145" height="40" as="geometry" />
        </mxCell>
      </root>
    </mxGraphModel>
  </diagram>
</mxfile>
